STARTFONT 2.3
FONT -FontForge-Courgette-Book-R-Normal--16-160-72-72-P-83-ISO10646-1
SIZE 16 72 72  4
FONTBOUNDINGBOX 21 21 -3 -5
COMMENT "Generated by fontforge, http://fontforge.sourceforge.net"
COMMENT "Copyright (c) 2012, Sorkin Type Co (www.sorkintype.com) with Reserved Font Name "Courgette"."
STARTPROPERTIES 41
FOUNDRY "FontForge"
FAMILY_NAME "Courgette"
WEIGHT_NAME "Book"
SLANT "R"
SETWIDTH_NAME "Normal"
ADD_STYLE_NAME ""
PIXEL_SIZE 16
POINT_SIZE 160
RESOLUTION_X 72
RESOLUTION_Y 72
SPACING "P"
AVERAGE_WIDTH 83
CHARSET_REGISTRY "ISO10646"
CHARSET_ENCODING "1"
FONTNAME_REGISTRY ""
CHARSET_COLLECTIONS "ISO8859-2 ISO8859-9 ISO8859-4 ISO10646-1"
BITS_PER_PIXEL 4
FONT_NAME "Courgette-Regular"
FACE_NAME "Courgette Regular"
COPYRIGHT "Copyright (c) 2012, Sorkin Type Co (www.sorkintype.com) with Reserved Font Name "Courgette"."
FONT_VERSION "1.002"
FONT_ASCENT 13
FONT_DESCENT 3
UNDERLINE_POSITION -2
UNDERLINE_THICKNESS 1
X_HEIGHT 7
CAP_HEIGHT 11
DEFAULT_CHAR 1
RAW_ASCENT 799
RAW_DESCENT 200
NORM_SPACE 5
RELATIVE_WEIGHT 40
RELATIVE_SETWIDTH 50
SUPERSCRIPT_X 0
SUPERSCRIPT_Y 7
SUPERSCRIPT_SIZE 10
SUBSCRIPT_X 0
SUBSCRIPT_Y 2
SUBSCRIPT_SIZE 10
AVG_LOWERCASE_WIDTH 80
AVG_UPPERCASE_WIDTH 93
ENDPROPERTIES
CHARS 407
STARTCHAR .null.dup1
ENCODING 0
SWIDTH 0 0
DWIDTH 0 0
BBX 1 1 0 0
BITMAP
00
ENDCHAR
STARTCHAR uni0001
ENCODING 1
SWIDTH 0 0
DWIDTH 0 0
BBX 1 1 0 0
BITMAP
00
ENDCHAR
STARTCHAR uni0002
ENCODING 2
SWIDTH 0 0
DWIDTH 0 0
BBX 1 1 0 0
BITMAP
00
ENDCHAR
STARTCHAR uni0003
ENCODING 3
SWIDTH 0 0
DWIDTH 0 0
BBX 1 1 0 0
BITMAP
00
ENDCHAR
STARTCHAR uni0004
ENCODING 4
SWIDTH 0 0
DWIDTH 0 0
BBX 1 1 0 0
BITMAP
00
ENDCHAR
STARTCHAR uni0005
ENCODING 5
SWIDTH 0 0
DWIDTH 0 0
BBX 1 1 0 0
BITMAP
00
ENDCHAR
STARTCHAR uni0006
ENCODING 6
SWIDTH 0 0
DWIDTH 0 0
BBX 1 1 0 0
BITMAP
00
ENDCHAR
STARTCHAR uni0007
ENCODING 7
SWIDTH 0 0
DWIDTH 0 0
BBX 1 1 0 0
BITMAP
00
ENDCHAR
STARTCHAR uni0008
ENCODING 8
SWIDTH 0 0
DWIDTH 0 0
BBX 1 1 0 0
BITMAP
00
ENDCHAR
STARTCHAR uni0009
ENCODING 9
SWIDTH 0 0
DWIDTH 0 0
BBX 1 1 0 0
BITMAP
00
ENDCHAR
STARTCHAR nonmarkingreturn
ENCODING 13
SWIDTH 0 0
DWIDTH 0 0
BBX 1 1 0 0
BITMAP
00
ENDCHAR
STARTCHAR uni0015
ENCODING 21
SWIDTH 0 0
DWIDTH 0 0
BBX 1 1 0 0
BITMAP
00
ENDCHAR
STARTCHAR uni0016
ENCODING 22
SWIDTH 0 0
DWIDTH 0 0
BBX 1 1 0 0
BITMAP
00
ENDCHAR
STARTCHAR uni0017
ENCODING 23
SWIDTH 0 0
DWIDTH 0 0
BBX 1 1 0 0
BITMAP
00
ENDCHAR
STARTCHAR uni0018
ENCODING 24
SWIDTH 0 0
DWIDTH 0 0
BBX 1 1 0 0
BITMAP
00
ENDCHAR
STARTCHAR uni0019
ENCODING 25
SWIDTH 0 0
DWIDTH 0 0
BBX 1 1 0 0
BITMAP
00
ENDCHAR
STARTCHAR space
ENCODING 32
SWIDTH 307 0
DWIDTH 5 0
BBX 1 1 0 0
BITMAP
00
ENDCHAR
STARTCHAR exclam
ENCODING 33
SWIDTH 417 0
DWIDTH 7 0
BBX 7 12 1 0
BITMAP
0000AF30
0007FB00
001EF200
006F8000
00CE1000
01F90000
04F20000
06B00000
04400000
27300000
AFC00000
5D500000
ENDCHAR
STARTCHAR quotedbl
ENCODING 34
SWIDTH 437 0
DWIDTH 7 0
BBX 7 4 2 9
BITMAP
2DC0AE20
8F44F800
BA07D100
A2065000
ENDCHAR
STARTCHAR numbersign
ENCODING 35
SWIDTH 725 0
DWIDTH 12 0
BBX 11 12 1 0
BITMAP
00000B70A900
00005F33F400
0000AC08D000
0001F60D8000
0BEFFEEFED30
000C80AA0000
001F40E50000
CEEFEEFED300
00C60A800000
01F20E400000
05D03E000000
086068000000
ENDCHAR
STARTCHAR dollar
ENCODING 36
SWIDTH 545 0
DWIDTH 9 0
BBX 10 16 0 -2
BITMAP
00000004D2
0000000C80
00005CEF50
0007F505F1
002F8003F4
008F4009F3
00AF407FC0
008FA07A20
002FF40000
0007FD0000
0220BF4000
0D703F4000
1FB06E1000
06FEB30000
01F2000000
04B0000000
ENDCHAR
STARTCHAR percent
ENCODING 37
SWIDTH 876 0
DWIDTH 14 0
BBX 12 12 1 0
BITMAP
02BEC20003D3
1DB1E8002E90
8F21F901DC00
BC05F50BD100
AC2DB08E3000
3CD916F40000
00003F708DD3
0002E90AE2BB
001CB04F60BD
00AD107F11F9
07E2007F1AE2
2D30001BEC30
ENDCHAR
STARTCHAR ampersand
ENCODING 38
SWIDTH 563 0
DWIDTH 9 0
BBX 10 12 0 0
BITMAP
00018DEC30
002DE403E0
00CF3007F1
03F9008FB0
05F602ED20
01EB631000
008FE80000
08FA120020
3FB03EFD90
6F5008D000
4F903D5000
07DEC40000
ENDCHAR
STARTCHAR quotesingle
ENCODING 39
SWIDTH 231 0
DWIDTH 4 0
BBX 3 4 2 9
BITMAP
2DC0
8F40
BA00
A200
ENDCHAR
STARTCHAR parenleft
ENCODING 40
SWIDTH 478 0
DWIDTH 8 0
BBX 9 18 1 -4
BITMAP
0000003B60
000005E500
00005F4000
0003F60000
000DB00000
007F300000
01EA000000
06F4000000
0BF0000000
0EB0000000
1F90000000
3F80000000
3F70000000
2F90000000
0DB0000000
08F1000000
01E9000000
004D300000
ENDCHAR
STARTCHAR parenright
ENCODING 41
SWIDTH 478 0
DWIDTH 8 0
BBX 9 18 -2 -4
BITMAP
00002D4000
000007E200
000001E900
000000AE00
0000008F30
0000007F40
0000007F40
0000008F30
000000AF10
000000DC00
000003F700
000009E100
00002F9000
0000BE1000
0005F40000
004F700000
04E6000000
5C40000000
ENDCHAR
STARTCHAR asterisk
ENCODING 42
SWIDTH 518 0
DWIDTH 8 0
BBX 6 6 2 6
BITMAP
003E80
548E20
5EBADD
09FD52
4D6E40
820890
ENDCHAR
STARTCHAR plus
ENCODING 43
SWIDTH 617 0
DWIDTH 10 0
BBX 8 8 1 2
BITMAP
00058000
00089000
00089000
00089000
9EEEEEEB
00089000
00089000
00077000
ENDCHAR
STARTCHAR comma
ENCODING 44
SWIDTH 312 0
DWIDTH 5 0
BBX 3 5 0 -2
BITMAP
0640
3FE0
0DD0
2E50
A600
ENDCHAR
STARTCHAR hyphen
ENCODING 45
SWIDTH 452 0
DWIDTH 7 0
BBX 6 1 1 4
BITMAP
6EEEC1
ENDCHAR
STARTCHAR period
ENCODING 46
SWIDTH 270 0
DWIDTH 4 0
BBX 3 3 0 -1
BITMAP
5EA0
8FC0
1510
ENDCHAR
STARTCHAR slash
ENCODING 47
SWIDTH 405 0
DWIDTH 7 0
BBX 12 17 -2 -3
BITMAP
0000000003D2
000000000CA0
000000006F20
00000001E800
00000008E100
0000002E6000
000000AD0000
000003F50000
00000BB00000
00005F300000
0000D9000000
0006E1000000
001E70000000
008D10000000
02F500000000
0AC000000000
2D3000000000
ENDCHAR
STARTCHAR zero
ENCODING 48
SWIDTH 621 0
DWIDTH 10 0
BBX 9 12 1 0
BITMAP
00006CEC30
000AE40BB0
009F4009E0
04F9000BE0
0CF2000EC0
3F90003F90
8F40009F40
CE0001ED00
EB0009F500
D9004FA000
AB04EB0000
2CED700000
ENDCHAR
STARTCHAR one
ENCODING 49
SWIDTH 405 0
DWIDTH 7 0
BBX 6 12 1 0
BITMAP
0007E4
02BFF7
0DCAF4
000BE0
001F90
006F40
00BC00
02F600
08E000
1E6000
6C0000
A20000
ENDCHAR
STARTCHAR two
ENCODING 50
SWIDTH 524 0
DWIDTH 8 0
BBX 9 12 0 0
BITMAP
0003BEE700
003E904F40
00BF101F70
00DF305F50
005A21DD10
00001CF400
0001CE4000
001CE30000
01CB100000
0A90002000
7FCDDDF100
A726CE9000
ENDCHAR
STARTCHAR three
ENCODING 51
SWIDTH 537 0
DWIDTH 9 0
BBX 9 12 0 0
BITMAP
00019EEA10
001DB11E80
009F200CB0
00CF301FA0
006C30AF40
00003CF800
0007FF7000
00036E9000
03400CD000
2F902FA000
4F51BE2000
08EEA20000
ENDCHAR
STARTCHAR four
ENCODING 52
SWIDTH 529 0
DWIDTH 8 0
BBX 8 12 1 0
BITMAP
007C1000
00AF2000
01ED0000
07F70690
1ED10BF1
8F501FB0
EA007F50
9EEEFFE3
0005F400
000CB000
004F2000
00960000
ENDCHAR
STARTCHAR five
ENCODING 53
SWIDTH 540 0
DWIDTH 9 0
BBX 10 12 0 0
BITMAP
0001DDA9B9
0006F6ADD3
000CB00000
004F400000
00BFCEB200
01FA13FA00
004000ED00
000001FB00
1A6006F700
6F301DD100
4F41BE3000
08EEA20000
ENDCHAR
STARTCHAR six
ENCODING 54
SWIDTH 554 0
DWIDTH 9 0
BBX 9 12 1 0
BITMAP
00019EE800
001DC22F20
01CD11AF10
07F403E700
1EC0000000
6F8ADC3000
AFE50CD000
CF6009F000
DF000CE000
CC004F8000
7E13EC1000
09ED800000
ENDCHAR
STARTCHAR seven
ENCODING 55
SWIDTH 473 0
DWIDTH 8 0
BBX 8 12 1 0
BITMAP
0DEDDEE8
07ED96E6
00001DB0
0000AE20
0006F500
002EA000
00BE1000
04F70000
0BF10000
1FB00000
3F800000
0A400000
ENDCHAR
STARTCHAR eight
ENCODING 56
SWIDTH 524 0
DWIDTH 8 0
BBX 9 12 0 0
BITMAP
0001AEE900
000C805F80
005F100EB0
007F200FA0
006F706F40
002FE7F700
000AFE3000
01BCCF2000
0CB02F7000
3F600C8000
1FB02E3000
05DDC40000
ENDCHAR
STARTCHAR nine
ENCODING 57
SWIDTH 554 0
DWIDTH 9 0
BBX 9 12 0 0
BITMAP
00007DEA10
000BD21E80
007F400CC0
00ED000EC0
03F9003FA0
03F700AF70
01FA07FF40
005DD9CD00
000002F600
08700BB000
2F619D1000
0AED810000
ENDCHAR
STARTCHAR colon
ENCODING 58
SWIDTH 312 0
DWIDTH 5 0
BBX 5 8 0 -1
BITMAP
01DD20
02FF20
004300
000000
000000
4EC000
6FD000
052000
ENDCHAR
STARTCHAR semicolon
ENCODING 59
SWIDTH 312 0
DWIDTH 5 0
BBX 5 10 0 -2
BITMAP
005600
02FF40
00BB10
000000
000000
064000
3FE000
0DD000
2E5000
A60000
ENDCHAR
STARTCHAR less
ENCODING 60
SWIDTH 637 0
DWIDTH 10 0
BBX 8 8 1 1
BITMAP
0000006D
00006DC3
005DD500
5DE70000
7EB30000
019E9200
00029E81
000002AD
ENDCHAR
STARTCHAR equal
ENCODING 61
SWIDTH 617 0
DWIDTH 10 0
BBX 9 4 1 4
BITMAP
7EEEEEED10
0000000000
0000000000
9EEEEEEC00
ENDCHAR
STARTCHAR greater
ENCODING 62
SWIDTH 606 0
DWIDTH 10 0
BBX 9 8 1 1
BITMAP
AB40000000
07EB300000
0018FB3000
00002AFA10
00004CE700
003AE71000
29E8100000
A810000000
ENDCHAR
STARTCHAR question
ENCODING 63
SWIDTH 516 0
DWIDTH 8 0
BBX 8 12 1 0
BITMAP
0007DE90
007F30D7
00CD00C9
00AD06F7
00007FD1
000AFC10
00AF9000
03F70000
05A00000
02100000
9FA00000
7E600000
ENDCHAR
STARTCHAR at
ENCODING 64
SWIDTH 905 0
DWIDTH 14 0
BBX 15 13 0 -2
BITMAP
0000028CEEC81000
00008C62014BE200
000B80000000BB00
00AA006CD6D24F10
05F107F34FD02F20
0BA03F802F703F10
1F708F209F108C00
2F50BE02FB01E500
3F60AE1AC92C9000
1F903DB26EC50000
0AE2000000000000
01CE510143000000
0007CEDC81000000
ENDCHAR
STARTCHAR A
ENCODING 65
SWIDTH 615 0
DWIDTH 10 0
BBX 13 12 -2 0
BITMAP
0000000004BE50
000000009CAF20
00000009B1DC00
0000007D14F600
000003F30AF100
00000C902FC100
00029FEFFFFC00
0008F844BF5100
0008D000DD0000
003F5001F90000
02DB0002F91000
2EB10000AEA000
ENDCHAR
STARTCHAR B
ENCODING 66
SWIDTH 551 0
DWIDTH 9 0
BBX 10 12 0 0
BITMAP
005ADEEC60
08FA3006F4
002AD101F8
004FC005F7
00CF302DE1
04FA16EE30
09FFFFD100
0DC304F800
2F6000EB00
3F3004F800
2F516EC100
08EEC60000
ENDCHAR
STARTCHAR C
ENCODING 67
SWIDTH 533 0
DWIDTH 9 0
BBX 10 12 0 0
BITMAP
000007DEB1
0001CD40B8
001DE200DA
009F5009F6
03FB008FC0
0AF4002710
0EE0000000
2FB0000000
3FA0000000
2FB0001000
0CE205E300
02AEEC6000
ENDCHAR
STARTCHAR D
ENCODING 68
SWIDTH 630 0
DWIDTH 10 0
BBX 11 12 0 0
BITMAP
018CEEDB4000
03EA2005F800
0004B4008F20
000DF2006F50
006F90007F50
00DF2000AF20
04FA0001FC00
09F4000AF500
0DE0006F9000
2F9006FA0000
3F72AF800000
08EEA3000000
ENDCHAR
STARTCHAR E
ENCODING 69
SWIDTH 509 0
DWIDTH 8 0
BBX 10 12 0 0
BITMAP
00006CED90
000AF810E4
007F8005F3
00ED008FC0
02F900BB10
00EA010000
005FFE0000
04EE710000
1EF3000000
4F90019000
3F903CB000
06DED81000
ENDCHAR
STARTCHAR F
ENCODING 70
SWIDTH 518 0
DWIDTH 8 0
BBX 10 12 0 0
BITMAP
04DEC95119
0EC12FCDD6
1F408F3000
0300EE0000
0004FA0000
0009F60000
00AFFED900
008FA00000
009F400000
02FB000000
0AE2000000
5D30000000
ENDCHAR
STARTCHAR G
ENCODING 71
SWIDTH 598 0
DWIDTH 10 0
BBX 10 12 0 0
BITMAP
000007DEB1
0001CE40A9
001CE300CB
009F6008F8
02FC007FD1
08F5002920
0DE1003111
1FB00BFFF5
2F9001DE80
1FA000D600
0BE209B000
02BED81000
ENDCHAR
STARTCHAR H
ENCODING 72
SWIDTH 668 0
DWIDTH 11 0
BBX 13 12 -1 0
BITMAP
005DFD20005D20
00157F40009F20
00009F2000DD00
0000DD0003F800
0002F90008F200
0019FDCDEFF800
004EE1006FE400
003F80009F3000
009F2000EC0000
02F80004F70000
0BD10007F31000
6C200004EC3000
ENDCHAR
STARTCHAR I
ENCODING 73
SWIDTH 327 0
DWIDTH 5 0
BBX 7 12 -1 0
BITMAP
002CED30
00054F80
00006F60
00009F30
0000DE00
0002FA00
0007F500
000DE000
004F8000
00BE1000
06F50000
1E700000
ENDCHAR
STARTCHAR J
ENCODING 74
SWIDTH 393 0
DWIDTH 6 0
BBX 10 16 -3 -4
BITMAP
000018DED5
0001EF72FB
00007304F9
00000008F6
0000000CF2
0000002FC0
0000007F70
000000DF20
000005FA00
00000CF300
00004FB000
0000CF2000
0007F70000
003FB00000
04EB100000
7D70000000
ENDCHAR
STARTCHAR K
ENCODING 75
SWIDTH 616 0
DWIDTH 10 0
BBX 12 12 -1 0
BITMAP
008EE80009D1
0043BF0008F5
0000EE000BF2
0002FB005F90
0006F704EA00
000BF35E7000
001FE9D30000
006FBEB00000
00CF26F80000
04F900CF4000
1DE1003FD200
8C200005DE60
ENDCHAR
STARTCHAR L
ENCODING 76
SWIDTH 517 0
DWIDTH 8 0
BBX 10 12 -1 0
BITMAP
0000019ED3
00000AE25D
00006F607E
0001ED02EB
0006F73DF4
000CF27E60
002FA00000
008F400000
00DC000000
05F4000000
2EB8BDEC10
2EDA878C50
ENDCHAR
STARTCHAR M
ENCODING 77
SWIDTH 931 0
DWIDTH 15 0
BBX 17 12 -2 0
BITMAP
000000005CE1004DD0
00000007CED005DEB0
0000005D4F802E7F60
000001E59F30B99F20
00000AB0DD04E1EC00
00003F32F90C65F700
0000CA06F54D09F300
0005F209F3C50DE000
001D800AF4C02FA000
009E100BEC404F7000
06F5000BFB003F8100
7E700006D2000AEB10
ENDCHAR
STARTCHAR N
ENCODING 78
SWIDTH 708 0
DWIDTH 11 0
BBX 13 12 0 0
BITMAP
00003CC001DB10
0002EFB000BF50
000AAF90009F40
004E3F9000BE10
00C91FA001E900
03F31FB005F200
09C00EE00C9000
0E800BF24E1000
4F4007F6A80000
7F0003FCE10000
AC0000BF800000
7900002D500000
ENDCHAR
STARTCHAR O
ENCODING 79
SWIDTH 655 0
DWIDTH 10 0
BBX 10 12 1 0
BITMAP
00006CED70
000BF604F5
00AF5000EA
06F90000EB
1EE10002FA
6F800006F6
BF20000CF1
DD00005FA0
FA0001DE20
EA0009F500
8E119F6000
19DEA30000
ENDCHAR
STARTCHAR P
ENCODING 80
SWIDTH 553 0
DWIDTH 9 0
BBX 11 12 -1 0
BITMAP
0005ADEDC700
003FC5103E80
00034E300CD0
0000CE101FB0
0003F901CF40
0008F46EE500
000EFEC71000
005F60000000
00BE10000000
03F700000000
0CC000000000
6D2000000000
ENDCHAR
STARTCHAR Q
ENCODING 81
SWIDTH 655 0
DWIDTH 10 0
BBX 11 14 1 -2
BITMAP
00017DED5000
002DD405F200
01DD2001F700
09F40002F800
1FB00005F700
6F40000BF300
9F10003FC000
BF0000BF3000
9F5007F70000
2EA07F800000
003AE6000000
09FFFA200000
00026DF93010
0000006BED40
ENDCHAR
STARTCHAR R
ENCODING 82
SWIDTH 623 0
DWIDTH 10 0
BBX 11 13 -1 -1
BITMAP
0004ADEEC600
002FC5102E80
00033E400AE0
0000BF200CE0
0002FB006F90
0007F618FB10
000CFBEE7000
003FAAE20000
009F32FA0000
02FA009F4000
0BE2002FD100
5D300005EE50
000000000100
ENDCHAR
STARTCHAR S
ENCODING 83
SWIDTH 474 0
DWIDTH 8 0
BBX 9 12 0 0
BITMAP
0002AED800
002EA11D70
00BE100BB0
01FA003FA0
03FA02EF30
01FF119500
00AFA00000
001EF50000
0403FB0000
6E00BC0000
8F31D50000
1BEC600000
ENDCHAR
STARTCHAR T
ENCODING 84
SWIDTH 471 0
DWIDTH 8 0
BBX 9 12 1 0
BITMAP
3CEC951090
CD20DEDD80
C604F90000
1009F50000
000DF10000
003FB00000
007F600000
00CF100000
02FA000000
08F3000000
2E90000000
CA10000000
ENDCHAR
STARTCHAR U
ENCODING 85
SWIDTH 624 0
DWIDTH 10 0
BBX 11 12 0 0
BITMAP
000CE30007D0
0008F5001EC0
000CF1008F50
003FA001EE00
00AF4008F900
02FC001EF400
08F5009FE000
0EE002EFA000
4F800B9F6000
9F30688F2000
AF25909F2100
3DD6003ED500
ENDCHAR
STARTCHAR V
ENCODING 86
SWIDTH 587 0
DWIDTH 9 0
BBX 11 12 1 0
BITMAP
3BED50009D30
262AE0007F80
004FD0005F60
00BF6000CE10
03FD0008F700
09F6005FA000
1ED004EB1000
5F703EB10000
8F23EA000000
AE2E80000000
9ED800000000
2E8000000000
ENDCHAR
STARTCHAR W
ENCODING 87
SWIDTH 941 0
DWIDTH 15 0
BBX 15 12 1 0
BITMAP
5CEC300000004E70
361DB00000005FD0
007FA001BE101FE0
01EF402DF7000FD0
06FB01DFC0002FA0
0CF40BFF50005F60
3FC08EBF1000AE10
7F53F4EC0002F800
BE1C71F9000AD000
DB7B01F8006E2000
CCD100EA07D30000
4E50005ED8100000
ENDCHAR
STARTCHAR X
ENCODING 88
SWIDTH 552 0
DWIDTH 9 0
BBX 13 12 -1 0
BITMAP
00002C5002BE30
00008F402DD300
00009F31DC1000
00008F3AD10000
00007FAE300000
00004FF6000000
00004FB0000000
0000CFD0000000
0009DAF3000000
008E35FA000000
09F400DF870000
9D40002CE60000
ENDCHAR
STARTCHAR Y
ENCODING 89
SWIDTH 580 0
DWIDTH 9 0
BBX 11 16 0 -4
BITMAP
001CE30008D0
0009F4001EB0
000CE1009F40
004F9002FD00
00AF3009F700
02FB002FF200
08F5009FB000
1ED003FF5000
5F700CBE1000
9F2078D90000
AF1696F20000
4DD61D900000
00009D100000
0006F3000000
007E50000000
1CB300000000
ENDCHAR
STARTCHAR Z
ENCODING 90
SWIDTH 501 0
DWIDTH 8 0
BBX 11 12 -1 0
BITMAP
000EDDDEED20
0008EEA5CF70
0000000AFD10
0000009FE300
000008FE4000
00006FF40000
0004FF400000
002EF5000000
00CF60000000
08F800000000
2FC59DFD2000
1EEEDDDE6000
ENDCHAR
STARTCHAR bracketleft
ENCODING 91
SWIDTH 396 0
DWIDTH 6 0
BBX 9 17 0 -3
BITMAP
000008FC20
00000EB000
00005F5000
0000AE0000
0001E90000
0005F40000
000AE00000
001F900000
006F400000
00BE000000
01F9000000
06F4000000
0BE0000000
2F90000000
7F40000000
CE00000000
DEC2000000
ENDCHAR
STARTCHAR backslash
ENCODING 92
SWIDTH 464 0
DWIDTH 7 0
BBX 6 17 0 -3
BITMAP
3C1000
0F5000
0B9000
07D000
04F100
00E500
00B900
007D00
003F10
000E50
000B90
0007D0
0003F2
0000E5
0000B9
00007D
00002D
ENDCHAR
STARTCHAR bracketright
ENCODING 93
SWIDTH 394 0
DWIDTH 6 0
BBX 9 17 -1 -3
BITMAP
000008EE50
0000007F30
000000BD00
000001F800
000006F300
00000BC000
00002F7000
00007F2000
0000CC0000
0002F70000
0007F20000
000CB00000
002F600000
008F100000
00DB000000
05F5000000
8EC1000000
ENDCHAR
STARTCHAR asciicircum
ENCODING 94
SWIDTH 540 0
DWIDTH 9 0
BBX 8 7 1 5
BITMAP
0008B000
001EF400
009EDB00
02F64F30
0AB00AA0
4E1002E3
34000042
ENDCHAR
STARTCHAR underscore
ENCODING 95
SWIDTH 530 0
DWIDTH 9 0
BBX 11 1 -3 -3
BITMAP
5DEEEEEEEEA0
ENDCHAR
STARTCHAR grave
ENCODING 96
SWIDTH 219 0
DWIDTH 4 0
BBX 3 4 0 8
BITMAP
3E50
5F50
0C80
0150
ENDCHAR
STARTCHAR a
ENCODING 97
SWIDTH 541 0
DWIDTH 9 0
BBX 9 9 0 -1
BITMAP
0006DD7D70
009E41EF40
07F501FC00
1EC007F600
5F700DE100
7F507FA000
5F54BEB310
0AEA1BFC00
0000014000
ENDCHAR
STARTCHAR b
ENCODING 98
SWIDTH 525 0
DWIDTH 8 0
BBX 8 13 0 0
BITMAP
0009A000
000DC000
001F8000
006F4000
00AE0000
00E99DD3
05FC61FA
0AF801FC
0ED103FA
3F7008F6
5F202ED0
3F43CD20
08EE9100
ENDCHAR
STARTCHAR c
ENCODING 99
SWIDTH 465 0
DWIDTH 7 0
BBX 8 8 0 0
BITMAP
0007DEA0
00BE43F4
08F508F3
1FC01EA0
5F700100
6F500100
4F903C10
07DDB300
ENDCHAR
STARTCHAR d
ENCODING 100
SWIDTH 557 0
DWIDTH 9 0
BBX 11 13 0 0
BITMAP
000000003E40
00000000BE10
00000002F900
00000007F400
0000000CE000
0004CE9F9000
006F60CF4000
04F700DE0000
0CE102FA0000
2F9009F60000
5F703FF20000
3F72DCF01000
0AEC44EC3000
ENDCHAR
STARTCHAR e
ENCODING 101
SWIDTH 471 0
DWIDTH 8 0
BBX 8 8 0 0
BITMAP
0006CEA0
009E35F3
06F608F3
0EE05FB0
4FDCE810
5F830000
2F902A40
05DED700
ENDCHAR
STARTCHAR f
ENCODING 102
SWIDTH 393 0
DWIDTH 6 0
BBX 10 15 -1 -2
BITMAP
000001ADB1
00000BD1E8
00004F63F8
00009F18D2
0000EC0000
0004F70000
008EFED800
016EC00000
003F700000
007F300000
00CE000000
02F9000000
07F4000000
0DD0000000
3D40000000
ENDCHAR
STARTCHAR g
ENCODING 103
SWIDTH 526 0
DWIDTH 8 0
BBX 9 13 0 -5
BITMAP
0006DE7630
009E41CF60
06F600DE10
0ED003FA00
4F900AF500
6F604FF100
4F73DFB000
0AEC6F5000
00009E0000
0002F60000
001CC00000
06DC100000
0550000000
ENDCHAR
STARTCHAR h
ENCODING 104
SWIDTH 555 0
DWIDTH 9 0
BBX 9 13 0 0
BITMAP
0003E40000
0006F50000
0009F20000
000DC00000
002F800000
006F26EC10
00BC669F30
01FA70DF10
06FB05FA00
0CE20BF300
4F701FD000
BE101F9100
C8000AE900
ENDCHAR
STARTCHAR i
ENCODING 105
SWIDTH 286 0
DWIDTH 5 0
BBX 6 12 0 0
BITMAP
001DD1
002FE1
000320
000000
02EE00
00DD00
02F800
07F100
0E9000
5F3000
8F9300
4EC100
ENDCHAR
STARTCHAR j
ENCODING 106
SWIDTH 281 0
DWIDTH 5 0
BBX 8 16 -3 -4
BITMAP
000006E8
000008F8
00000040
00000000
00004EC0
00001FC0
00002FA0
00004F60
00008F20
0000DC00
0003F700
000AE100
002F7000
00BD0000
08E20000
8B200000
ENDCHAR
STARTCHAR k
ENCODING 107
SWIDTH 497 0
DWIDTH 8 0
BBX 8 13 0 0
BITMAP
0003E300
0006F400
0009F100
000DC000
002F7000
006F21EC
00BC00DE
01F71BF5
06F9EA30
0CEF8000
4F7CE100
BE14FC74
C7007EC2
ENDCHAR
STARTCHAR l
ENCODING 108
SWIDTH 279 0
DWIDTH 4 0
BBX 6 13 0 0
BITMAP
0006D1
000AF1
000DD0
002F90
006F40
00BE00
01F900
06F400
0BE000
1FA000
5F5000
7F3300
2DD300
ENDCHAR
STARTCHAR m
ENCODING 109
SWIDTH 814 0
DWIDTH 13 0
BBX 13 8 0 0
BITMAP
02EB05DC04CD20
00DD584E596F60
01FA909DB0BF20
06FB01EE23FA00
0CE207F609F300
3F700DD00DC000
AE104F600ED800
C8005D1008E800
ENDCHAR
STARTCHAR n
ENCODING 110
SWIDTH 561 0
DWIDTH 9 0
BBX 9 8 0 0
BITMAP
02EB05DC10
00DD567F50
01FB80CF30
06FB04FC00
0CE20AF500
3F700EE000
AE100FA100
C80009EA00
ENDCHAR
STARTCHAR o
ENCODING 111
SWIDTH 514 0
DWIDTH 8 0
BBX 8 8 0 0
BITMAP
0007DEA1
00BE43F7
08F602FA
1ED004F8
4F800AF4
6F503FC0
3F62DD20
07DE9200
ENDCHAR
STARTCHAR p
ENCODING 112
SWIDTH 550 0
DWIDTH 9 0
BBX 11 12 -2 -4
BITMAP
0007E65CE700
0003FCC19F10
0005FE108F30
0009F500BF10
000DD002FB00
002F900AF300
007FB19F6000
00BDAEB40000
01F900000000
06F400000000
0CD000000000
1E6000000000
ENDCHAR
STARTCHAR q
ENCODING 113
SWIDTH 533 0
DWIDTH 9 0
BBX 9 12 0 -4
BITMAP
0005CE8530
008F50CF80
05F700EF20
0DD003FA00
3F900AF400
5F604FC000
3F72CE7000
09EB6F1000
0000AC0000
0000E80000
0002F60000
0000C70000
ENDCHAR
STARTCHAR r
ENCODING 114
SWIDTH 407 0
DWIDTH 7 0
BBX 8 8 0 0
BITMAP
04E81AE1
01FAACF2
02FA8010
06FB0000
0BF30000
2FA00000
8F300000
8C000000
ENDCHAR
STARTCHAR s
ENCODING 115
SWIDTH 423 0
DWIDTH 7 0
BBX 7 8 0 0
BITMAP
005CEC30
03F51EB0
06F60A50
02FD1000
008FA000
341DF000
BC1BD000
5DEB2000
ENDCHAR
STARTCHAR t
ENCODING 116
SWIDTH 358 0
DWIDTH 6 0
BBX 6 10 1 0
BITMAP
003E40
00CE10
4EFEC6
0BE100
1FA000
5F5000
8F1000
BD0010
BE6C30
4ED600
ENDCHAR
STARTCHAR u
ENCODING 117
SWIDTH 553 0
DWIDTH 9 0
BBX 9 8 0 0
BITMAP
02DD000C90
00CF006F60
02FB01EE00
08F508F800
1EE02EF200
6F80BBC000
9F3A4DA000
4EB309E900
ENDCHAR
STARTCHAR v
ENCODING 118
SWIDTH 510 0
DWIDTH 8 0
BBX 8 8 0 0
BITMAP
01DD02E9
00CF00DE
01FA00CC
07F300E8
0EC005F2
4F602E60
7F75D700
3DEA3000
ENDCHAR
STARTCHAR w
ENCODING 119
SWIDTH 750 0
DWIDTH 12 0
BBX 12 8 0 0
BITMAP
04EC001504E6
00DE00CE01FB
00E905F800DA
05F41DF200E6
0BD0AFB005E1
2F779E901D50
5FBB0DC4C800
4E8006ED5000
ENDCHAR
STARTCHAR x
ENCODING 120
SWIDTH 467 0
DWIDTH 7 0
BBX 10 8 -1 0
BITMAP
000A802BD1
003F82DB10
002F9BB000
000EEC1000
000BF30000
003EF60000
04E7EC0100
3E504DD400
ENDCHAR
STARTCHAR y
ENCODING 121
SWIDTH 549 0
DWIDTH 9 0
BBX 9 13 0 -5
BITMAP
01DD100BA0
00BF105F80
01EC00DF30
07F605FD00
0DE11DF800
5F90ABF300
8F496BC000
3EC52F6000
00008E1000
0002E60000
001CB00000
04CD100000
0881000000
ENDCHAR
STARTCHAR z
ENCODING 122
SWIDTH 430 0
DWIDTH 7 0
BBX 8 8 0 0
BITMAP
01EA89E2
00697DF3
0001BF50
002DE400
03ED2000
1EC10000
AF9AB400
AD87AB00
ENDCHAR
STARTCHAR braceleft
ENCODING 123
SWIDTH 424 0
DWIDTH 7 0
BBX 9 17 0 -3
BITMAP
0000009E90
000007F600
00000CD000
00001F8000
00005F5000
00009F1000
0001EB0000
001BF30000
05FD500000
01D8000000
00AD000000
00EB000000
04F6000000
0AE1000000
0EA0000000
2F90000000
0BE5000000
ENDCHAR
STARTCHAR bar
ENCODING 124
SWIDTH 306 0
DWIDTH 5 0
BBX 2 17 2 -3
BITMAP
B5
F7
F7
F7
F7
F7
F7
F7
F7
F7
F7
F7
F7
F7
F7
F6
D3
ENDCHAR
STARTCHAR braceright
ENCODING 125
SWIDTH 424 0
DWIDTH 7 0
BBX 8 17 -1 -3
BITMAP
000008E9
000000CE
000000DC
000003F7
000009F1
00000EB0
00001F70
00000CA0
00007DE2
0006F810
000DC000
004F6000
008F2000
00CD0000
01F90000
09F30000
BE700000
ENDCHAR
STARTCHAR asciitilde
ENCODING 126
SWIDTH 624 0
DWIDTH 10 0
BBX 9 3 1 4
BITMAP
07DD500280
881AF51B30
B0009EC400
ENDCHAR
STARTCHAR nonbreakingspace
ENCODING 160
SWIDTH 293 0
DWIDTH 5 0
BBX 1 1 0 0
BITMAP
00
ENDCHAR
STARTCHAR exclamdown
ENCODING 161
SWIDTH 417 0
DWIDTH 7 0
BBX 7 14 0 -4
BITMAP
00001100
0003FE10
0004EC00
00000000
000B4000
006E0000
01E90000
06F40000
0CF00000
2FB00000
6F800000
8F600000
6F300000
06000000
ENDCHAR
STARTCHAR cent
ENCODING 162
SWIDTH 487 0
DWIDTH 8 0
BBX 7 12 1 0
BITMAP
00000B80
00005E10
0018DC10
03EB3D80
1DE13F80
7F708D20
BF200000
CF000100
9F418900
1BFD8100
08900000
0A400000
ENDCHAR
STARTCHAR sterling
ENCODING 163
SWIDTH 665 0
DWIDTH 11 0
BBX 12 12 -1 0
BITMAP
00000001AED3
0000001CD18B
0000008F409C
000001FC04F8
000008F64FE1
00000EF12A30
0009DFEE8000
0002AF300000
0000ED000000
08DDFA100000
4D1DABFDDE70
2DE9107DFC20
ENDCHAR
STARTCHAR currency
ENCODING 164
SWIDTH 572 0
DWIDTH 9 0
BBX 9 10 1 1
BITMAP
005A000640
009C006F50
007FDCE600
01DD28E100
0AF308F300
2FA00CF100
4F604FA000
2F73DC1000
7CDDBB0000
91000B0000
ENDCHAR
STARTCHAR yen
ENCODING 165
SWIDTH 583 0
DWIDTH 9 0
BBX 11 12 1 0
BITMAP
8E700000AE40
6DF2000BF900
03F8008F9000
00BC04FB0000
005F0CD10000
000F8F300000
000CFA000000
0CFFFE800000
012FA0000000
5EFFFE200000
02AE20000000
00B800000000
ENDCHAR
STARTCHAR brokenbar
ENCODING 166
SWIDTH 292 0
DWIDTH 5 0
BBX 3 17 1 -3
BITMAP
1D20
3F30
4F30
4F30
4F30
4F30
4F30
3D10
0000
1D20
3F30
4F30
4F30
4F30
4F30
4F30
3D10
ENDCHAR
STARTCHAR section
ENCODING 167
SWIDTH 583 0
DWIDTH 9 0
BBX 10 16 0 -3
BITMAP
000019DD80
0000BE31E6
0003F900D9
0004F91BF6
0002FE1A70
0006EF7000
00BD5FE100
05F509F700
07F502FC00
05FB00DC00
00DF64F600
004FFB5000
1409F40000
BB04F50000
DD17E10000
4CEB300000
ENDCHAR
STARTCHAR dieresis
ENCODING 168
SWIDTH 412 0
DWIDTH 7 0
BBX 7 3 0 9
BITMAP
2DC07E60
4FD0AF70
03101400
ENDCHAR
STARTCHAR copyright
ENCODING 169
SWIDTH 871 0
DWIDTH 14 0
BBX 13 12 1 0
BITMAP
00005BDED81000
002CB4002AD200
01E805CE90BB00
0BB07F60E33F20
3F23F907F10F50
8C09F23E701F40
AA0BD000003F20
B908F218108C00
8C019DD702E500
3F5000002D9000
06E60016E80000
003AEED9300000
ENDCHAR
STARTCHAR ordfeminine
ENCODING 170
SWIDTH 564 0
DWIDTH 9 0
BBX 8 7 1 5
BITMAP
0007DB8B
00BD27F9
08F309F2
0EB01EA0
3F708F50
2F65CF31
08D92CC3
ENDCHAR
STARTCHAR guillemotleft
ENCODING 171
SWIDTH 662 0
DWIDTH 11 0
BBX 9 7 1 1
BITMAP
0005A005A0
02BD22BD20
5EB16EB100
BE20CE1000
2DC12DC100
02EB02EA00
0026002600
ENDCHAR
STARTCHAR logicalnot
ENCODING 172
SWIDTH 729 0
DWIDTH 12 0
BBX 10 5 1 1
BITMAP
8EEEEEEEE3
00000002F3
00000003F3
00000004F2
00000004C1
ENDCHAR
STARTCHAR uni00AD
ENCODING 173
SWIDTH 833 0
DWIDTH 13 0
BBX 1 1 0 0
BITMAP
00
ENDCHAR
STARTCHAR registered
ENCODING 174
SWIDTH 742 0
DWIDTH 12 0
BBX 11 11 1 1
BITMAP
0003ADEC6000
007D4213C800
05C5DCE82E20
0E32935D0B60
5C01F6C70A60
7905EE600D40
7B0B88B04D00
3E2911A5D600
0AC3015D8000
007EFFB40000
000010000000
ENDCHAR
STARTCHAR macron
ENCODING 175
SWIDTH 392 0
DWIDTH 6 0
BBX 6 1 1 9
BITMAP
9EEED6
ENDCHAR
STARTCHAR degree
ENCODING 176
SWIDTH 405 0
DWIDTH 7 0
BBX 6 5 1 7
BITMAP
019DE6
0BC19D
2F50BD
2F65F6
08DC50
ENDCHAR
STARTCHAR plusminus
ENCODING 177
SWIDTH 617 0
DWIDTH 10 0
BBX 8 10 1 0
BITMAP
00068000
00089000
00089000
9EEEEEEB
00089000
00089000
00089000
00076000
00000000
9EEEEEEB
ENDCHAR
STARTCHAR twosuperior
ENCODING 178
SWIDTH 458 0
DWIDTH 7 0
BBX 7 8 1 4
BITMAP
005DEA10
02F51E80
05F42F80
0184CF30
002CF500
04EC3000
4F901300
9C9CD400
ENDCHAR
STARTCHAR threesuperior
ENCODING 179
SWIDTH 430 0
DWIDTH 7 0
BBX 7 9 1 3
BITMAP
003CEB10
00E62F70
02F52F70
0052CE20
005FD300
003AE200
7C06F300
BB1CC000
2BC81000
ENDCHAR
STARTCHAR acute
ENCODING 180
SWIDTH 322 0
DWIDTH 5 0
BBX 4 4 1 9
BITMAP
0068
00DD
08F5
4C30
ENDCHAR
STARTCHAR mu
ENCODING 181
SWIDTH 618 0
DWIDTH 10 0
BBX 11 12 -1 -4
BITMAP
0000B9003E50
0007F600BF10
001ED005F900
007F601DF200
00DF109FB000
04FB05CF7000
09FD8C3FB700
0DDEB10BE600
2F5000000000
5F3000000000
7F1000000000
6C0000000000
ENDCHAR
STARTCHAR paragraph
ENCODING 182
SWIDTH 739 0
DWIDTH 12 0
BBX 14 14 0 -1
BITMAP
00000049CDEED4
00004DFFE37F30
0004FFFF70BE00
000CFFFF30EB00
000EFFFE03F700
000AFFFB07F200
0001BFF70BD000
00000AF31E8000
00000EE04F3000
00003F909C0000
06A18F30E70000
5FA1EA04F10000
7F28E10B900000
2CEB202C100000
ENDCHAR
STARTCHAR periodcentered
ENCODING 183
SWIDTH 353 0
DWIDTH 6 0
BBX 3 3 2 3
BITMAP
CE40
EF50
3400
ENDCHAR
STARTCHAR cedilla
ENCODING 184
SWIDTH 301 0
DWIDTH 5 0
BBX 3 4 1 -4
BITMAP
0A30
07A0
3DA0
AD30
ENDCHAR
STARTCHAR onesuperior
ENCODING 185
SWIDTH 403 0
DWIDTH 6 0
BBX 5 9 2 3
BITMAP
007E30
09FF50
CBCF10
00EB00
04F500
0AD000
3F5000
AA0000
610000
ENDCHAR
STARTCHAR ordmasculine
ENCODING 186
SWIDTH 498 0
DWIDTH 8 0
BBX 7 7 1 4
BITMAP
0019DD40
01DC1AD0
0AF20AF0
1F900EC0
4F506F60
2F63EB00
07DD8000
ENDCHAR
STARTCHAR guillemotright
ENCODING 187
SWIDTH 665 0
DWIDTH 11 0
BBX 9 7 1 1
BITMAP
2E602E6000
08F508F500
00AF40AF40
006F806F80
09E709E700
BA20BA2000
4000400000
ENDCHAR
STARTCHAR onequarter
ENCODING 188
SWIDTH 988 0
DWIDTH 16 0
BBX 14 13 1 0
BITMAP
000000000B7000
001AC1008E1000
01CFF002F60000
3EAFA00AC00000
004F404F422000
00AC00CA09F000
03F506F20EC000
0BA01E807F43E3
2A108E11E809E1
0002F601DFEFF5
000AC000028E31
003F400000D800
00A8000004A000
ENDCHAR
STARTCHAR onehalf
ENCODING 189
SWIDTH 988 0
DWIDTH 16 0
BBX 14 13 1 0
BITMAP
000000000B7000
000AC1008E1000
01BFF102F60000
3EBEB00AC00000
014F504F400000
009E00CA04CEC3
01F706F21F80BB
09D01E801D80DC
2E308E100009F6
0102F60001AF90
000AC0002CE600
003F4002ED2030
00A80006FDEE70
ENDCHAR
STARTCHAR threequarters
ENCODING 190
SWIDTH 1007 0
DWIDTH 16 0
BBX 15 13 0 0
BITMAP
00000000002D3000
001AED5000BC0000
009B0BE005F30000
00AA1DC00D900000
0005CD307E152000
002CF401E70CA000
1A20EA09D02F7210
5F26F43F508E19B0
09CB40BB01E80D90
000005F306E14F60
00000D9002DEFEA0
00007E100001E400
0000D50000095000
ENDCHAR
STARTCHAR questiondown
ENCODING 191
SWIDTH 516 0
DWIDTH 8 0
BBX 8 12 0 -3
BITMAP
00000AE3
00000EF5
00000110
00001D10
0000BE00
001CF600
04EF6000
3FE40000
BE23E600
E803F800
B908F300
2BEC4000
ENDCHAR
STARTCHAR Agrave
ENCODING 192
SWIDTH 615 0
DWIDTH 10 0
BBX 13 16 -2 0
BITMAP
00000000033000
000000000DC000
0000000008F600
00000000003600
0000000004BE50
000000009CAF20
00000009B1DC00
0000007D14F600
000003F30AF100
00000C902FC100
00029FEFFFFC00
0008F844BF5100
0008D000DD0000
003F5001F90000
02DB0002F91000
2EB10000AEA000
ENDCHAR
STARTCHAR Aacute
ENCODING 193
SWIDTH 615 0
DWIDTH 10 0
BBX 14 16 -2 0
BITMAP
00000000000050
000000000006F4
00000000003EA0
00000000005400
0000000004BE50
000000009CAF20
00000009B1DC00
0000007D14F600
000003F30AF100
00000C902FC100
00029FEFFFFC00
0008F844BF5100
0008D000DD0000
003F5001F90000
02DB0002F91000
2EB10000AEA000
ENDCHAR
STARTCHAR Acircumflex
ENCODING 194
SWIDTH 615 0
DWIDTH 10 0
BBX 14 16 -2 0
BITMAP
00000000000300
00000000007F70
000000003BCBE1
00000000450172
0000000004BE50
000000009CAF20
00000009B1DC00
0000007D14F600
000003F30AF100
00000C902FC100
00029FEFFFFC00
0008F844BF5100
0008D000DD0000
003F5001F90000
02DB0002F91000
2EB10000AEA000
ENDCHAR
STARTCHAR Atilde
ENCODING 195
SWIDTH 615 0
DWIDTH 10 0
BBX 14 15 -2 0
BITMAP
000000003BE70A
00000000A16DC4
00000000000000
0000000004BE50
000000009CAF20
00000009B1DC00
0000007D14F600
000003F30AF100
00000C902FC100
00029FEFFFFC00
0008F844BF5100
0008D000DD0000
003F5001F90000
02DB0002F91000
2EB10000AEA000
ENDCHAR
STARTCHAR Adieresis
ENCODING 196
SWIDTH 615 0
DWIDTH 10 0
BBX 14 15 -2 0
BITMAP
000000009E42DC
00000000CF43FD
00000000130031
0000000004BE50
000000009CAF20
00000009B1DC00
0000007D14F600
000003F30AF100
00000C902FC100
00029FEFFFFC00
0008F844BF5100
0008D000DC0000
003F5001F90000
02DB0002FC7100
2EB10000AE9000
ENDCHAR
STARTCHAR Aring
ENCODING 197
SWIDTH 615 0
DWIDTH 10 0
BBX 14 16 -2 0
BITMAP
00000000019DA0
0000000009B2F4
000000000E62F4
000000000E78D0
000000000AFF70
00000000AFCF20
0000000BD3BC00
0000008E23F700
000004F509F200
00001DA00EC000
0005DFDCEFE900
0005F400BF1000
000AB000EC0000
005F4002F90000
03EA0002F91000
2EA10000AEA000
ENDCHAR
STARTCHAR AE
ENCODING 198
SWIDTH 878 0
DWIDTH 14 0
BBX 18 12 -2 0
BITMAP
0000000007DEADFD80
00000001BA4FF811F3
0000000AC0BF7007F2
0000007E21FD009FA0
000003F603F800BA10
00001DC001F8000000
0004CFDCDEFFD90000
0006F50008FC200000
000CC0003FD1000000
006F40006F7004C000
03EA00003FB48F9000
1DB1000007DFC60000
ENDCHAR
STARTCHAR Ccedilla
ENCODING 199
SWIDTH 533 0
DWIDTH 9 0
BBX 10 16 0 -4
BITMAP
000007DEB1
0001CE40A9
000CE200CB
008F5008F7
02FC007FD1
08F5002710
0DE1000000
1FC0000000
2FA0000000
1FB0001100
0CF205E400
02CFEC6000
000E100000
002F300000
03EE100000
0162000000
ENDCHAR
STARTCHAR Egrave
ENCODING 200
SWIDTH 509 0
DWIDTH 8 0
BBX 10 16 0 0
BITMAP
0000025000
00000AE100
000005FA00
0000002710
00006CED90
000AF810E4
007F8005F3
00ED008FC0
02F900BB10
00EA010000
005FFE0000
04EE710000
1EF3000000
4F90019000
3F903CB000
06DED81000
ENDCHAR
STARTCHAR Eacute
ENCODING 201
SWIDTH 509 0
DWIDTH 8 0
BBX 10 16 0 0
BITMAP
0000000041
00000003F7
0000001CD2
0000003500
00006CED90
000AF810E4
007F8005F3
00ED008FC0
02F900BB10
00EA010000
005FFE0000
04EE710000
1EF3000000
4F90019000
3F903CB000
06DED81000
ENDCHAR
STARTCHAR Ecircumflex
ENCODING 202
SWIDTH 509 0
DWIDTH 8 0
BBX 10 16 0 0
BITMAP
0000000210
0000004EB0
000029D9F4
0000361064
00006CED90
000AF810E4
007F8005F3
00ED008FC0
02F900BB10
00EA010000
005FFE0000
04EE710000
1EF3000000
4F90019000
3F903CB000
06DED81000
ENDCHAR
STARTCHAR Edieresis
ENCODING 203
SWIDTH 509 0
DWIDTH 8 0
BBX 11 15 0 0
BITMAP
00006E70BE20
00009F80EF20
000014002200
00006CED9000
000AF810E400
007F8005F300
00ED008FC000
02F900BB1000
00EA01000000
005FFE000000
04EE71000000
1EF300000000
4F9001900000
3F903CB00000
06DED8100000
ENDCHAR
STARTCHAR Igrave
ENCODING 204
SWIDTH 327 0
DWIDTH 5 0
BBX 7 16 -1 0
BITMAP
00003400
0000CD00
00007F70
00000360
002CED30
00054F80
00006F60
00009F30
0000DE00
0002FA00
0007F500
000DE000
004F8000
00BE1000
06F50000
1E700000
ENDCHAR
STARTCHAR Iacute
ENCODING 205
SWIDTH 327 0
DWIDTH 5 0
BBX 9 16 -1 0
BITMAP
0000000500
0000005F40
000002EB00
0000044000
002CED3000
00054F8000
00006F6000
00009F3000
0000DE0000
0002FA0000
0007F50000
000DE00000
004F800000
00BE100000
06F5000000
1E70000000
ENDCHAR
STARTCHAR Icircumflex
ENCODING 206
SWIDTH 327 0
DWIDTH 5 0
BBX 9 16 -1 0
BITMAP
0000002000
000006F800
0003BCAE20
0004501730
002CED3000
00054F8000
00006F6000
00009F3000
0000DE0000
0002FA0000
0007F50000
000DE00000
004F800000
00BE100000
06F5000000
1E70000000
ENDCHAR
STARTCHAR Idieresis
ENCODING 207
SWIDTH 327 0
DWIDTH 5 0
BBX 10 15 -1 0
BITMAP
0008E51DD1
000BF52FE0
0001300320
002CED3000
00054F8000
00006F6000
00009F3000
0000DE0000
0002FA0000
0007F50000
000DE00000
004F800000
00BE100000
06F5000000
1E70000000
ENDCHAR
STARTCHAR Eth
ENCODING 208
SWIDTH 630 0
DWIDTH 10 0
BBX 11 12 0 0
BITMAP
028CEEDA4000
05FA2017F600
00149300AE10
000EF2007F30
017FA1008F30
5FFFFF50CF10
27FA4303FA00
09F4000BF300
0ED0008F7000
3F8007F90000
5F52BE700000
0AED92000000
ENDCHAR
STARTCHAR Ntilde
ENCODING 209
SWIDTH 708 0
DWIDTH 11 0
BBX 13 15 0 0
BITMAP
00000006DC3290
0000002819EA10
00000000000000
00003CC001DB10
0002EFB000BF50
000AAF90009F40
004E3F9000BE10
00C91FA001E900
03F31FB005F200
09C00EE00C9000
0E800BF24E1000
4F4007F6A80000
7F0003FCE10000
AC0000BF800000
7900002D500000
ENDCHAR
STARTCHAR Ograve
ENCODING 210
SWIDTH 655 0
DWIDTH 10 0
BBX 10 16 1 0
BITMAP
0000005100
000003F700
000001CE20
0000000540
00006CED70
000BF604F5
00AF5000EA
06F90000EB
1EE10002FA
6F800006F6
BF20000CF1
DD00005FA0
FA0001DE20
EA0009F500
8E119F6000
19DEA30000
ENDCHAR
STARTCHAR Oacute
ENCODING 211
SWIDTH 655 0
DWIDTH 10 0
BBX 10 16 1 0
BITMAP
0000000023
00000000BE
00000006F6
0000000720
00006CED70
000BF604F5
00AF5000EA
06F90000EB
1EE10002FA
6F800006F6
BF20000CF1
DD00005FA0
FA0001DE20
EA0009F500
8E119F6000
19DEA30000
ENDCHAR
STARTCHAR Ocircumflex
ENCODING 212
SWIDTH 655 0
DWIDTH 10 0
BBX 10 16 1 0
BITMAP
0000000030
0000001AF3
000006D9EA
0000063037
00006CED70
000BF604F5
00AF5000EA
06F90000EB
1EE10002FA
6F800006F6
BF20000CF1
DD00005FA0
FA0001DE20
EA0009F500
8E119F6000
19DEA30000
ENDCHAR
STARTCHAR Otilde
ENCODING 213
SWIDTH 655 0
DWIDTH 10 0
BBX 11 15 1 0
BITMAP
000006DC3290
00002819EA10
000000000000
00006CED7000
000BF604F500
00AF5000EA00
06F90000EB00
1EE10002FA00
6F800006F600
BF20000CF100
DD00005FA000
FA0001DE2000
EA0009F50000
8E119F600000
19DEA3000000
ENDCHAR
STARTCHAR Odieresis
ENCODING 214
SWIDTH 655 0
DWIDTH 10 0
BBX 11 15 1 0
BITMAP
00001DD16E80
00002FE18F80
000003200400
00006CED7000
000BF604F500
00AF5000EA00
06F90000EB00
1EE10002FA00
6F800006F600
BF20000CF100
DD00005FA000
FA0001DE2000
EA0009F50000
8E119F600000
19DEA3000000
ENDCHAR
STARTCHAR multiply
ENCODING 215
SWIDTH 573 0
DWIDTH 9 0
BBX 8 6 1 2
BITMAP
3D3004D2
06E34E50
006EE400
006EE300
06E36E30
4D2006D0
ENDCHAR
STARTCHAR Oslash
ENCODING 216
SWIDTH 655 0
DWIDTH 10 0
BBX 11 15 1 -1
BITMAP
000000000630
000000009F30
000029EEF700
0004EB2CFD00
004FC15D7F30
00DE21D47F30
07F80890AF10
0DE12D10EE00
3FA0A504F800
6F54B00CF200
8F3C205F8000
7F9902EC1000
2FE14EC10000
0DDED7000000
5A0000000000
ENDCHAR
STARTCHAR Ugrave
ENCODING 217
SWIDTH 624 0
DWIDTH 10 0
BBX 11 16 0 0
BITMAP
000000520000
000001F80000
000000BE3000
000000054000
000CE30007D0
0008F5001EC0
000CF1008F50
003FA001EE00
00AF4008F900
02FC001EF400
08F5009FE000
0EE002EFA000
4F800B9F6000
9F30688F2000
AF25909F2100
3DD6003ED500
ENDCHAR
STARTCHAR Uacute
ENCODING 218
SWIDTH 624 0
DWIDTH 10 0
BBX 11 16 0 0
BITMAP
000000002400
000000009F00
00000005F700
000000063000
000CE30007D0
0008F5001EC0
000CF1008F50
003FA001EE00
00AF4008F900
02FC001EF400
08F5009FE000
0EE002EFA000
4F800B9F6000
9F30688F2000
AF25909F2100
3DD6003ED500
ENDCHAR
STARTCHAR Ucircumflex
ENCODING 219
SWIDTH 624 0
DWIDTH 10 0
BBX 11 16 0 0
BITMAP
000000003000
00000019F400
000005D9DC00
000006302710
000CE30007D0
0008F5001EC0
000CF1008F50
003FA001EE00
00AF4008F900
02FC001EF400
08F5009FE000
0EE002EFA000
4F800B9F6000
9F30688F2000
AF25909F2100
3DD6003ED500
ENDCHAR
STARTCHAR Udieresis
ENCODING 220
SWIDTH 624 0
DWIDTH 10 0
BBX 11 15 0 0
BITMAP
00000CE24E90
00001FE17FA0
000003200410
000CE30007D0
0008F5001EC0
000CF1008F50
003FA001EE00
00AF4008F900
02FC001EF400
08F5009FE000
0EE002EFA000
4F800B9F6000
9F30688F2000
AF25909F2100
3DD6003ED500
ENDCHAR
STARTCHAR Yacute
ENCODING 221
SWIDTH 580 0
DWIDTH 9 0
BBX 11 20 0 -4
BITMAP
000000007A00
00000002EB00
0000000C9100
000000000000
001CE30008D0
0009F4001EB0
000CE1009F40
004F9002FD00
00AF3009F700
02FB002FF200
08F5009FB000
1ED003FF5000
5F700CBE1000
9F2078D90000
AF1696F20000
4DD61D900000
00009D100000
0006F3000000
007E50000000
1CB300000000
ENDCHAR
STARTCHAR Thorn
ENCODING 222
SWIDTH 527 0
DWIDTH 8 0
BBX 10 12 -1 0
BITMAP
009EF90000
0033CE0000
0000ED0000
0003FFDB40
0007F506F4
000BF101F9
001FB007F6
007F529FC1
00DFEFC600
05F6100000
1EB0000000
9B10000000
ENDCHAR
STARTCHAR germandbls
ENCODING 223
SWIDTH 520 0
DWIDTH 8 0
BBX 10 15 -1 -2
BITMAP
000005CD91
00005F61E7
0001EA00E9
0006F305F6
000CD01EC0
001F90CC10
006F56F200
009F19E000
00DC06F700
02F900DF30
06F5523FA0
0AF2F91C80
1EB08EE900
6F50000000
AC00000000
ENDCHAR
STARTCHAR agrave
ENCODING 224
SWIDTH 541 0
DWIDTH 9 0
BBX 9 13 0 -1
BITMAP
00004E4000
00006F4000
00000C7000
0000014000
0006DD7D70
009E41EF40
07F501FC00
1EC007F600
5F700DE100
7F507FA000
5F54BEB310
0AEA1BFC00
0000014000
ENDCHAR
STARTCHAR aacute
ENCODING 225
SWIDTH 541 0
DWIDTH 9 0
BBX 9 14 0 -1
BITMAP
0000008600
000001FB00
00000AE300
00006B2000
0000000000
0006DD7D70
009E41EF40
07F501FC00
1EC007F600
5F700DE100
7F507FA000
5F54BEB310
0AEA1BFC00
0000014000
ENDCHAR
STARTCHAR acircumflex
ENCODING 226
SWIDTH 541 0
DWIDTH 9 0
BBX 9 14 0 -1
BITMAP
0000002200
000003DD00
00006EAF20
000BB21D60
0000000000
0006DD7D70
009E41EF40
07F501FC00
1EC007F600
5F700DE100
7F507FA000
5F54BEB310
0AEA1BFC00
0000014000
ENDCHAR
STARTCHAR atilde
ENCODING 227
SWIDTH 541 0
DWIDTH 9 0
BBX 10 13 0 -1
BITMAP
0002BE80A2
000924DC50
0000000000
0000000000
0006DD7D70
009E41EF40
07F501FC00
1EC007F600
5F700DE100
7F507FA000
5F54BEB310
0AEA1BFC00
0000014000
ENDCHAR
STARTCHAR adieresis
ENCODING 228
SWIDTH 541 0
DWIDTH 9 0
BBX 10 13 0 -1
BITMAP
0008E61DD1
000BF62FE1
0001400320
0000000000
0006DD7D70
009E41EF40
07F501FC00
1EC007F600
5F700DE100
7F507FA000
5F54BEB310
0AEA1BFC00
0000014000
ENDCHAR
STARTCHAR aring
ENCODING 229
SWIDTH 541 0
DWIDTH 9 0
BBX 9 13 0 -1
BITMAP
00003CEC20
0000D83F40
00008ED700
0000000000
0006DD7D70
009E41EF40
07F501FC00
1EC007F600
5F700DE100
7F507FA000
5F54BEB310
0AEA1BFC00
0000014000
ENDCHAR
STARTCHAR ae
ENCODING 230
SWIDTH 769 0
DWIDTH 12 0
BBX 12 8 0 0
BITMAP
0006DD7DCDE7
009E41EF90CF
07F501FD02EE
1EC007F63DF5
5F700DFDD930
7F407EF20010
5F64B6F604D1
0AEA108EDB40
ENDCHAR
STARTCHAR ccedilla
ENCODING 231
SWIDTH 465 0
DWIDTH 7 0
BBX 8 12 0 -4
BITMAP
0007DEA0
00BE33F4
09F508F3
1FC01EA0
5F700100
7F500100
4F803C10
08FEC400
00790000
009B0000
09F70000
03600000
ENDCHAR
STARTCHAR egrave
ENCODING 232
SWIDTH 471 0
DWIDTH 8 0
BBX 8 12 0 0
BITMAP
0000CA00
0000FA00
00007D00
00000400
0006CEA0
009E35F3
06F608F3
0EE05FB0
4FDCE810
5F830000
2F902A40
05DED700
ENDCHAR
STARTCHAR eacute
ENCODING 233
SWIDTH 471 0
DWIDTH 8 0
BBX 8 13 0 0
BITMAP
000003A1
00000AF2
00004F80
0002C600
00000000
0006CEA0
009E35F3
06F608F3
0EE05FB0
4FDCE810
5F830000
2F902A40
05DED700
ENDCHAR
STARTCHAR ecircumflex
ENCODING 234
SWIDTH 471 0
DWIDTH 8 0
BBX 8 13 0 0
BITMAP
00000040
00001AF4
0003CAF7
005D609C
00000000
0006CEA0
009E35F3
06F608F3
0EE05FB0
4FDCE810
5F830000
2F902A40
05DED700
ENDCHAR
STARTCHAR edieresis
ENCODING 235
SWIDTH 471 0
DWIDTH 8 0
BBX 9 12 0 0
BITMAP
003EB08E50
005FC0BF50
0004101400
0000000000
0006CEA000
009E35F300
06F509F200
0ED18F9000
4FEDA50000
5F60001000
2FA03C4000
05DEC60000
ENDCHAR
STARTCHAR igrave
ENCODING 236
SWIDTH 286 0
DWIDTH 5 0
BBX 5 12 0 0
BITMAP
007E00
00AF00
002E30
000220
02EE00
00DD00
02F800
07F100
0E9000
5F3000
8F9300
4EC100
ENDCHAR
STARTCHAR iacute
ENCODING 237
SWIDTH 286 0
DWIDTH 5 0
BBX 6 13 0 0
BITMAP
0000A3
0005F7
001DC1
00A910
000000
02EE00
00DD00
02F800
07F100
0E9000
5F3000
8F9300
4EC100
ENDCHAR
STARTCHAR icircumflex
ENCODING 238
SWIDTH 286 0
DWIDTH 5 0
BBX 7 13 0 0
BITMAP
00003100
0005F900
019DBD00
1D914E30
00000000
02EE0000
00DD0000
02F80000
07F10000
0E900000
5F300000
8F930000
4EC10000
ENDCHAR
STARTCHAR idieresis
ENCODING 239
SWIDTH 286 0
DWIDTH 5 0
BBX 7 12 0 0
BITMAP
0BE24EA0
0EF26FB0
02200410
00000000
02EE0000
00DD0000
02F80000
07F10000
0E900000
5F300000
8F930000
4EC10000
ENDCHAR
STARTCHAR eth
ENCODING 240
SWIDTH 524 0
DWIDTH 8 0
BBX 10 13 0 0
BITMAP
000000B400
0000005D75
000003BFC9
00002B5E60
0000000F70
0006DD9F50
009E30DF30
06F500DE00
0DD004F900
4F800AF200
5F604F8000
3F72DB0000
09ED700000
ENDCHAR
STARTCHAR ntilde
ENCODING 241
SWIDTH 561 0
DWIDTH 9 0
BBX 10 12 0 0
BITMAP
0002BE8092
000924DC50
0000000000
0000000000
02EB05DC10
00DD567F50
01FB80CF30
06FB04FC00
0CE20AF500
3F700EE000
AE100FA100
C80009EA00
ENDCHAR
STARTCHAR ograve
ENCODING 242
SWIDTH 514 0
DWIDTH 8 0
BBX 8 12 0 0
BITMAP
00002E60
00004F60
00000B90
00000040
0007DEA1
00BE43F7
08F602FA
1ED004F8
4F800AF4
6F503FC0
3F62DD20
07DE9200
ENDCHAR
STARTCHAR oacute
ENCODING 243
SWIDTH 514 0
DWIDTH 8 0
BBX 8 13 0 0
BITMAP
00000068
000000DD
000008F5
00004C30
00000000
0007DEA1
00BE43F7
08F602FA
1ED004F8
4F800AF4
6F503FC0
3F62DD20
07DE9200
ENDCHAR
STARTCHAR ocircumflex
ENCODING 244
SWIDTH 514 0
DWIDTH 8 0
BBX 9 13 0 0
BITMAP
0000001300
000002CF00
00005E9F40
0009C30C80
0000000000
0007DEA100
00BE43F700
08F602FA00
1ED004F800
4F800AF400
6F503FC000
3F62DD2000
07DE920000
ENDCHAR
STARTCHAR otilde
ENCODING 245
SWIDTH 514 0
DWIDTH 8 0
BBX 10 12 0 0
BITMAP
0001AEA184
000833CD60
0000000000
0000000000
0007DEA100
00BE43F700
08F602FA00
1ED004F800
4F800AF400
6F503FC000
3F62DD2000
07DE920000
ENDCHAR
STARTCHAR odieresis
ENCODING 246
SWIDTH 514 0
DWIDTH 8 0
BBX 10 12 0 0
BITMAP
0006E80BE2
0009F80EF2
0001400220
0000000000
0007DEA100
00BE43F700
08F602FA00
1ED004F800
4F800AF400
6F503FC000
3F62DD2000
07DE920000
ENDCHAR
STARTCHAR divide
ENCODING 247
SWIDTH 617 0
DWIDTH 10 0
BBX 9 9 1 1
BITMAP
0002400000
000BF50000
0005910000
0000000000
6BBBBBBB10
1222222100
0003300000
000EF20000
0007800000
ENDCHAR
STARTCHAR oslash
ENCODING 248
SWIDTH 514 0
DWIDTH 8 0
BBX 9 12 0 -2
BITMAP
0000001620
000000AE20
0007DEF600
00BE4AF700
07F657FA00
1ED1A4F800
4F7739F400
6F692FC000
3FD3CE2000
0CFEA20000
1F30000000
1500000000
ENDCHAR
STARTCHAR ugrave
ENCODING 249
SWIDTH 553 0
DWIDTH 9 0
BBX 9 12 0 0
BITMAP
00000BB000
00000DB000
000006E000
0000004100
02DD000C90
00CE007F50
02FA02ED00
08F40AF600
1EC06EE100
6F53CBB000
9F9D2DD700
4EB209E800
ENDCHAR
STARTCHAR uacute
ENCODING 250
SWIDTH 553 0
DWIDTH 9 0
BBX 9 13 0 0
BITMAP
0000002B10
0000008F40
000003FA00
00001C7000
0000000000
02DD000C90
00CF006F60
02FB01EE00
08F508F800
1EE02EF200
6F80BBC000
9F3A4DA000
4EB309E900
ENDCHAR
STARTCHAR ucircumflex
ENCODING 251
SWIDTH 553 0
DWIDTH 9 0
BBX 9 13 0 0
BITMAP
0000000400
0000009F50
00002BBD90
0004D707D0
0000000000
02DD000C90
00CF006F60
02FB01EE00
08F508F800
1EE02EF200
6F80BBC000
9F3A4DA000
4EB309E900
ENDCHAR
STARTCHAR udieresis
ENCODING 252
SWIDTH 553 0
DWIDTH 9 0
BBX 10 12 0 0
BITMAP
0002DC07E7
0003FD09F7
0000310140
0000000000
02DD000C90
00CF006F60
02FB01EE00
08F508F800
1EE02EF200
6F80BBC000
9F3A4DA000
4EB309E900
ENDCHAR
STARTCHAR yacute
ENCODING 253
SWIDTH 549 0
DWIDTH 9 0
BBX 9 18 0 -5
BITMAP
0000007700
000000ED00
000009E400
00005C3000
0000000000
01DD100BA0
00BF105F80
01EC00DF30
07F605FD00
0DE11DF800
5F90ABF300
8F496BC000
3EC52F6000
00008E1000
0002E60000
001CB00000
04CD100000
0881000000
ENDCHAR
STARTCHAR thorn
ENCODING 254
SWIDTH 552 0
DWIDTH 9 0
BBX 11 18 -2 -4
BITMAP
000000610000
000003F50000
000006F30000
00000AE00000
00000EA00000
00005F500000
00009E5CE800
0000EDC19F10
0004FE208F30
0009F600BF10
000DD002FB00
003F900AF400
008FB18F6000
00DD9EB40000
04F800000000
0AF200000000
1FB000000000
4E3000000000
ENDCHAR
STARTCHAR ydieresis
ENCODING 255
SWIDTH 549 0
DWIDTH 9 0
BBX 10 17 0 -5
BITMAP
0007E70CE2
0009F71FE1
0001400320
0000000000
01DD100BA0
00BF105F80
01EC00DF30
07F605FD00
0DE11DF800
5F90ABF300
8F496BC000
3EC52F6000
00008E1000
0002E60000
001CB00000
04CD100000
0881000000
ENDCHAR
STARTCHAR Amacron
ENCODING 256
SWIDTH 615 0
DWIDTH 10 0
BBX 14 14 -2 0
BITMAP
000000008EEEE7
00000000000000
0000000004BE50
000000009CAF20
00000009B1DC00
0000007D14F600
000003F30AF100
00000C902FC100
00029FEFFFFC00
0008F844BF5100
0008D000DD0000
003F5001F90000
02DB0002F91000
2EB10000AEA000
ENDCHAR
STARTCHAR amacron
ENCODING 257
SWIDTH 543 0
DWIDTH 9 0
BBX 9 11 0 -1
BITMAP
0007DEEE70
0000000000
0006DD7D70
009E41EF40
06F501FC00
1EC006F600
4F800DE100
6F507FA000
5F64BDB310
0AEA1BFD00
0000014000
ENDCHAR
STARTCHAR Abreve
ENCODING 258
SWIDTH 615 0
DWIDTH 10 0
BBX 14 16 -2 0
BITMAP
00000000042004
000000000F8079
0000000007ED70
00000000000000
0000000004BE50
000000009CAF20
00000009B1DC00
0000007D14F600
000003F30AF100
00000C902FC100
00029FEFFFFC00
0008F844BF5100
0008D000DC0000
003F5001F90000
02DB0002FC7100
2EB10000AE9000
ENDCHAR
STARTCHAR abreve
ENCODING 259
SWIDTH 543 0
DWIDTH 9 0
BBX 9 13 0 -1
BITMAP
0000B50090
0000EA1970
00005DD600
0000000000
0006DD7D70
009E41EF40
06F501FC00
1EC006F600
4F800DE100
6F507FA000
5F64BDB310
0AEA1BFD00
0000014000
ENDCHAR
STARTCHAR Aogonek
ENCODING 260
SWIDTH 615 0
DWIDTH 10 0
BBX 13 16 -2 -4
BITMAP
0000000004BE50
000000009CAF20
00000009B1DC00
0000007D14F600
000003F30AF100
00000C902FC100
0002AFEFFFFC00
0007F844BF5100
0008D000DC0000
003F5001F90000
02DB0002FB6100
2EB10000BFB000
00000001C80000
0000000BB00000
0000002F720000
0000001CD50000
ENDCHAR
STARTCHAR aogonek
ENCODING 261
SWIDTH 541 0
DWIDTH 9 0
BBX 9 12 0 -4
BITMAP
0006DD7D70
009E41EF40
07F501FC00
1EC007F600
5F700DE100
7F507FA000
5F54BEB310
0AEA19FC00
000009C100
00006E1000
0000DC2000
00009E8000
ENDCHAR
STARTCHAR Cacute
ENCODING 262
SWIDTH 533 0
DWIDTH 9 0
BBX 11 16 0 0
BITMAP
000000000320
000000000DB0
000000009E40
000000016100
000007DEB100
0001CD40B800
001DE200DA00
009F5009F600
03FB008FC000
0AF400271000
0EE000000000
2FB000000000
3FA000000000
2FB000100000
0CE205E30000
02AEEC600000
ENDCHAR
STARTCHAR cacute
ENCODING 263
SWIDTH 468 0
DWIDTH 8 0
BBX 9 13 0 0
BITMAP
0000000A40
0000004F80
000001CD10
0000099100
0000000000
0007DEB000
00BE42F400
08F508F300
1FD00EB000
5F70000000
6F50010000
3F903C1000
07DEB30000
ENDCHAR
STARTCHAR Ccircumflex
ENCODING 264
SWIDTH 533 0
DWIDTH 9 0
BBX 11 16 0 0
BITMAP
000000001200
00000002CE10
0000017E8F80
000001720460
000007DEB100
0001CD40B800
001DE200DA00
009F5009F600
03FB008FC000
0AF400271000
0EE000000000
2FB000000000
3FA000000000
2FB000100000
0CE205E30000
02AEEC600000
ENDCHAR
STARTCHAR ccircumflex
ENCODING 265
SWIDTH 468 0
DWIDTH 8 0
BBX 9 13 0 0
BITMAP
0000002200
000003DD00
00006EAF20
000BB21D60
0000000000
0007DEB000
00BE42F400
08F508F300
1FD00EB000
5F70000000
6F50010000
3F903C1000
07DEB30000
ENDCHAR
STARTCHAR Cdotaccent
ENCODING 266
SWIDTH 533 0
DWIDTH 9 0
BBX 10 16 0 0
BITMAP
0000000560
0000002FF2
0000000A80
0000000000
000007DEB1
0001CD40B8
001DE200DA
009F5009F6
03FB008FC0
0AF4002710
0EE0000000
2FB0000000
3FA0000000
2FB0001000
0CE205E300
02AEEC6000
ENDCHAR
STARTCHAR cdotaccent
ENCODING 267
SWIDTH 468 0
DWIDTH 8 0
BBX 8 12 0 0
BITMAP
00000AE3
00000DF3
00000230
00000000
0007DEB0
00BE42F4
08F508F3
1FD00EB0
5F700000
6F500100
3F903C10
07DEB300
ENDCHAR
STARTCHAR Ccaron
ENCODING 268
SWIDTH 533 0
DWIDTH 9 0
BBX 12 16 0 0
BITMAP
000000540032
0000009F57E4
0000001EE930
000000021000
000007DEB100
0001CD40B800
001DE200DA00
009F5009F600
03FB008FC000
0AF400271000
0EE000000000
2FB000000000
3FA000000000
2FB000100000
0CE205E30000
02AEEC600000
ENDCHAR
STARTCHAR ccaron
ENCODING 269
SWIDTH 468 0
DWIDTH 8 0
BBX 10 12 0 0
BITMAP
00008A0077
00005F5BD2
00001FD600
0000020000
0007DEB000
00BE42F400
08F508F300
1FD00EB000
5F70000000
6F50010000
3F903C1000
07DEB30000
ENDCHAR
STARTCHAR Dcaron
ENCODING 270
SWIDTH 630 0
DWIDTH 10 0
BBX 11 16 0 0
BITMAP
000003500130
000006F85D70
000000BFB500
000000120000
018CEEDB4000
03EA2005F800
0004B4008F20
000DF2006F50
006F90007F50
00DF2000AF20
04FA0001FC00
09F4000AF500
0DE0006F9000
2F9006FA0000
3F72AF800000
08EEA3000000
ENDCHAR
STARTCHAR dcaron
ENCODING 271
SWIDTH 557 0
DWIDTH 9 0
BBX 13 13 0 0
BITMAP
000000003E48E0
00000000BE19F0
00000002F90B90
00000007F45B10
0000000CE00000
0004CE9F900000
006F60CF400000
04F700DE000000
0CE102FA000000
2F9009F6000000
5F703FF2000000
3F72DCF0100000
0AEC44EC300000
ENDCHAR
STARTCHAR Dcroat
ENCODING 272
SWIDTH 630 0
DWIDTH 10 0
BBX 11 12 0 0
BITMAP
028CEEDA4000
05FA2017F600
00149300AE10
001EE2007F30
018F91008F30
5FFFFF50CF10
29FD4303FA00
0AF3000BF300
0EC0008F7000
3F8007F90000
4F52BE700000
0AED92000000
ENDCHAR
STARTCHAR dcroat
ENCODING 273
SWIDTH 557 0
DWIDTH 9 0
BBX 11 13 0 0
BITMAP
000000003E40
00000000AF10
000008EEFF80
00000128F500
0000000CE000
0004CE9F9000
006F60CF4000
04F700DE0000
0CE102FA0000
2F9009F60000
5F703FF20000
3F72DCF01000
0AEC44EC3000
ENDCHAR
STARTCHAR Emacron
ENCODING 274
SWIDTH 509 0
DWIDTH 8 0
BBX 10 14 0 0
BITMAP
00006DEEE9
0000000000
00006CED90
000AF810E4
007F8005F3
00ED008FC0
02F900BB10
00EA010000
005FFE0000
04EE710000
1EF3000000
4F90019000
3F903CB000
06DED81000
ENDCHAR
STARTCHAR emacron
ENCODING 275
SWIDTH 471 0
DWIDTH 8 0
BBX 9 10 0 0
BITMAP
003DEEEB10
0000000000
0006CEA000
009E35F300
06F608F300
0EE05FB000
4FDCE81000
5F83000000
2F902A4000
05DED70000
ENDCHAR
STARTCHAR Ebreve
ENCODING 276
SWIDTH 509 0
DWIDTH 8 0
BBX 10 16 0 0
BITMAP
0000033004
00000CB05B
000005DD91
0000000000
00006CED90
000AF810E4
007F8005F3
00ED008FC0
02F900BB10
00EA010000
005FFE0000
04EE710000
1EF3000000
4F90019000
3F903CB000
06DED81000
ENDCHAR
STARTCHAR ebreve
ENCODING 277
SWIDTH 471 0
DWIDTH 8 0
BBX 9 12 0 0
BITMAP
0005A00730
0009E15B00
0002CE9100
0000000000
0006CEA000
009E35F300
06F608F300
0EE05FB000
4FDCE81000
5F83000000
2F902A4000
05DED70000
ENDCHAR
STARTCHAR Edotaccent
ENCODING 278
SWIDTH 509 0
DWIDTH 8 0
BBX 10 16 0 0
BITMAP
0000016400
000006FD00
000002B500
0000000000
00006CED90
000AF810E4
007F8005F3
00ED008FC0
02F900BB10
00EA010000
005FFE0000
04EE710000
1EF3000000
4F90019000
3F903CB000
06DED81000
ENDCHAR
STARTCHAR edotaccent
ENCODING 279
SWIDTH 471 0
DWIDTH 8 0
BBX 8 12 0 0
BITMAP
00005E90
00008F90
00000400
00000000
0006CEA0
009E35F3
06F608F3
0EE05FB0
4FDCE810
5F830000
2F902A40
05DED700
ENDCHAR
STARTCHAR Eogonek
ENCODING 280
SWIDTH 509 0
DWIDTH 8 0
BBX 10 16 0 -4
BITMAP
00006CED90
000AF810E4
007F8005F3
00ED008FC0
02F900BB10
00EA010000
005FFE0000
04EE710000
1EF3000000
5F90018000
3F903CD000
06DEFB2000
002E700000
00DA000000
04F6100000
02DC300000
ENDCHAR
STARTCHAR eogonek
ENCODING 281
SWIDTH 471 0
DWIDTH 8 0
BBX 8 12 0 -4
BITMAP
0006CEA0
009E35F3
06F608F3
0DE05FB0
3FDCE810
4F820000
2FA02A50
05DEFC10
001CA000
00AC0000
01F82000
00CD5000
ENDCHAR
STARTCHAR Ecaron
ENCODING 282
SWIDTH 509 0
DWIDTH 8 0
BBX 11 16 0 0
BITMAP
000006300400
00001CE39E10
000003FD8200
000000300000
00006CED9000
000AF810E400
007F8005F300
00ED008FC000
02F900BB1000
00EA01000000
005FFE000000
04EE71000000
1EF300000000
4F9001900000
3F903CB00000
06DED8100000
ENDCHAR
STARTCHAR ecaron
ENCODING 283
SWIDTH 471 0
DWIDTH 8 0
BBX 9 12 0 0
BITMAP
0003C203C0
0000E97E60
00009E9200
0000110000
0006CEA000
009E35F300
06F608F300
0EE05FB000
4FDCE81000
5F83000000
2F902A4000
05DED70000
ENDCHAR
STARTCHAR Gcircumflex
ENCODING 284
SWIDTH 598 0
DWIDTH 10 0
BBX 11 16 0 0
BITMAP
000000001200
00000002DE00
0000018E8F70
000001710560
000007DEB100
0001CE40A900
001CE300CB00
009F6008F800
02FC007FD100
08F500292000
0DE100311100
1FB00BFFF500
2F9001DE8000
1FA000D60000
0BE209B00000
02BED8100000
ENDCHAR
STARTCHAR gcircumflex
ENCODING 285
SWIDTH 526 0
DWIDTH 8 0
BBX 9 18 0 -5
BITMAP
0000001300
000002DE00
00005E9F30
0009C30C80
0000000000
0006DE7630
009E41CF60
06F600DE10
0ED003FA00
4F900AF500
6F604FF100
4F73DFB000
0AEC6F5000
00009E0000
0002F60000
001CC00000
06DC100000
0550000000
ENDCHAR
STARTCHAR Gbreve
ENCODING 286
SWIDTH 598 0
DWIDTH 10 0
BBX 12 16 0 0
BITMAP
000000250031
0000009D13C1
0000003CEA20
000000000000
000007DEB100
0001CE40A900
001CE300CB00
009F6008F800
02FC007FD100
08F500292000
0DE100311100
1FB00BFFF500
2F9001DE8000
1FA000D60000
0BE209B00000
02BED8100000
ENDCHAR
STARTCHAR gbreve
ENCODING 287
SWIDTH 526 0
DWIDTH 8 0
BBX 9 17 0 -5
BITMAP
00009700A0
0000DB1880
00004DD700
0000000000
0006DE7630
009E41CF60
06F600DE10
0ED003FA00
4F900AF500
6F604FF100
4F73DFB000
0AEC6F5000
00009E0000
0002F60000
001CC00000
06DC100000
0550000000
ENDCHAR
STARTCHAR Gdotaccent
ENCODING 288
SWIDTH 598 0
DWIDTH 10 0
BBX 10 16 0 0
BITMAP
0000000560
0000003FF1
0000001A80
0000000000
000007DEB1
0001CE40A9
001CE300CB
009F6008F8
02FC007FD1
08F5002920
0DE1003111
1FB00BFFF5
2F9001DE80
1FA000D600
0BE209B000
02BED81000
ENDCHAR
STARTCHAR gdotaccent
ENCODING 289
SWIDTH 526 0
DWIDTH 8 0
BBX 9 17 0 -5
BITMAP
000009E500
00000CF500
0000013000
0000000000
0006DE7630
009E41CF60
06F600DE10
0ED003FA00
4F900AF500
6F604FF100
4F73DFB000
0AEC6F5000
00009E0000
0002F60000
001CC00000
06DC100000
0550000000
ENDCHAR
STARTCHAR Gcommaaccent
ENCODING 290
SWIDTH 598 0
DWIDTH 10 0
BBX 10 16 0 -4
BITMAP
000007DEB1
0001CE40A9
001CE300CB
009F6008F8
02FC007FD1
08F5002920
0DE1003111
1FB00BFFF5
2F9001DE80
1FA000D600
0BE209B000
02BED81000
0042000000
02FB000000
00E7000000
0880000000
ENDCHAR
STARTCHAR gcommaaccent
ENCODING 291
SWIDTH 526 0
DWIDTH 8 0
BBX 9 17 0 -5
BITMAP
0000009700
000008E000
000007C200
0000000000
0006DE7630
009E41CF60
06F600DE10
0ED003FA00
4F900AF500
6F604FF100
4F73DFB000
0AEC6F5000
00009E0000
0002F60000
001CC00000
06DC100000
0550000000
ENDCHAR
STARTCHAR Hcircumflex
ENCODING 292
SWIDTH 668 0
DWIDTH 11 0
BBX 13 16 -1 0
BITMAP
00000000030000
00000001BF2000
0000007E8F9000
00000072037000
005DFD20005D20
00157F40009F20
00009F2000DD00
0000DD0003F800
0002F90008F200
0019FDCDEFF800
004EE1006FE400
003F80009F3000
009F2000EC0000
02F80004F70000
0BD10007F31000
6C200004EC3000
ENDCHAR
STARTCHAR hcircumflex
ENCODING 293
SWIDTH 555 0
DWIDTH 9 0
BBX 9 16 0 0
BITMAP
0000040000
00008F6000
002BBDA000
03D706E100
0006D10000
000AF10000
000DD00000
002F800000
006F36EC10
00BC669F30
02FA80EF10
07FB06FA00
0DE20BF300
4F701FD000
BE101F9100
C8000AE900
ENDCHAR
STARTCHAR Hbar
ENCODING 294
SWIDTH 668 0
DWIDTH 11 0
BBX 14 12 -1 0
BITMAP
005DFC10004D20
00157F50008F30
0001AF3000BE00
00BFFFDDDEFEC2
0012FA0007F200
0008FDCDEFF700
005FE1005F6000
002F8000AE0000
009F2001EA0000
02F80005F50000
0BD10007F31000
6C200004EC3000
ENDCHAR
STARTCHAR hbar
ENCODING 295
SWIDTH 555 0
DWIDTH 9 0
BBX 9 13 0 0
BITMAP
0002E30000
0006F50000
01CEFED300
000DC00000
002F800000
006F26EC10
00BC669F30
01FA70DF10
06FB05FA00
0CE20BF300
4F701FD000
BE101F9100
C8000AE900
ENDCHAR
STARTCHAR Itilde
ENCODING 296
SWIDTH 327 0
DWIDTH 5 0
BBX 10 15 -1 0
BITMAP
0002BE7091
000A25DC50
0000000000
002CED3000
00054F8000
00006F6000
00009F3000
0000DE0000
0002FA0000
0007F50000
000DE00000
004F800000
00BE100000
06F5000000
1E70000000
ENDCHAR
STARTCHAR itilde
ENCODING 297
SWIDTH 286 0
DWIDTH 5 0
BBX 7 12 0 0
BITMAP
04CE51A0
0A07EB30
00000000
00000000
02EE0000
00DD0000
02F80000
07F10000
0E900000
5F300000
8F930000
4EC10000
ENDCHAR
STARTCHAR Imacron
ENCODING 298
SWIDTH 327 0
DWIDTH 5 0
BBX 9 14 -1 0
BITMAP
0008EEEE70
0000000000
002CED3000
00054F8000
00006F6000
00009F3000
0000DE0000
0002FA0000
0007F50000
000DE00000
004F800000
00BE100000
06F5000000
1E70000000
ENDCHAR
STARTCHAR imacron
ENCODING 299
SWIDTH 286 0
DWIDTH 5 0
BBX 7 10 0 0
BITMAP
1CEEED20
00000000
02EE0000
00DD0000
02F80000
07F10000
0E900000
5F300000
8F930000
4EC10000
ENDCHAR
STARTCHAR Ibreve
ENCODING 300
SWIDTH 327 0
DWIDTH 5 0
BBX 9 16 -1 0
BITMAP
0000420040
0000F80790
00007ED700
0000000000
002CED3000
00054F8000
00006F6000
00009F3000
0000DE0000
0002FA0000
0007F50000
000DE00000
004F800000
00BE100000
06F5000000
1E70000000
ENDCHAR
STARTCHAR ibreve
ENCODING 301
SWIDTH 286 0
DWIDTH 5 0
BBX 7 12 0 0
BITMAP
01D10280
03F62C30
009EC400
00000000
02EE0000
00DD0000
02F80000
07F10000
0E900000
5F300000
8F930000
4EC10000
ENDCHAR
STARTCHAR Iogonek
ENCODING 302
SWIDTH 327 0
DWIDTH 5 0
BBX 9 16 -3 -4
BITMAP
00002CED30
0000054F80
0000006F70
0000009F40
000000CF00
000002FB00
000006F600
00000CF100
00002FA000
00009F3000
0003F90000
001DC10000
009A100000
09C0000000
2F71000000
1DD5000000
ENDCHAR
STARTCHAR iogonek
ENCODING 303
SWIDTH 297 0
DWIDTH 5 0
BBX 7 16 -1 -4
BITMAP
0000BE30
0000EF20
00002200
00000000
001DE200
000BF100
000DB000
004F5000
00AD0000
01F80000
05F50000
04FF6000
00C80000
0AA00000
4F510000
3DC30000
ENDCHAR
STARTCHAR Idotaccent
ENCODING 304
SWIDTH 327 0
DWIDTH 5 0
BBX 7 16 -1 0
BITMAP
00001730
00009FA0
00004B40
00000000
002CED30
00054F80
00006F60
00009F30
0000DE00
0002FA00
0007F500
000DE000
004F8000
00BE1000
06F50000
1E700000
ENDCHAR
STARTCHAR dotlessi
ENCODING 305
SWIDTH 286 0
DWIDTH 5 0
BBX 4 8 0 0
BITMAP
02EE
00DD
02F8
07F1
0E90
5F30
8F93
4EC1
ENDCHAR
STARTCHAR IJ
ENCODING 306
SWIDTH 720 0
DWIDTH 12 0
BBX 13 16 -1 -4
BITMAP
002CED306CEE80
00054F8BF91DF0
00006F65600FD0
00009F30004FA0
0000DE00009F60
0002FA0000DF10
0007F50003FB00
000DE00009F500
004F80001FE000
00BE10008F7000
06F50001EE1000
1E700009F60000
0000003FB00000
000001DD100000
00002CD2000000
0004D910000000
ENDCHAR
STARTCHAR ij
ENCODING 307
SWIDTH 567 0
DWIDTH 9 0
BBX 10 16 0 -4
BITMAP
001DD10BE2
002FE10EF2
0003200220
0000000000
02EE00AF50
00DD007F60
02F8008F30
07F100BF00
0E9000EB00
5F3004F600
8F930AE100
4EC12F9000
00008E2000
0002F70000
001CA00000
01D8000000
ENDCHAR
STARTCHAR Jcircumflex
ENCODING 308
SWIDTH 393 0
DWIDTH 6 0
BBX 12 20 -3 -4
BITMAP
000000001A30
00000004DEA0
0000008C46E3
000000000000
000018DED500
0001EF72FB00
00007304F900
00000008F600
0000000CF200
0000002FC000
0000007F7000
000000DF2000
000005FA0000
00000CF30000
00004FB00000
0000CF200000
0007F7000000
003FB0000000
04EB10000000
7D7000000000
ENDCHAR
STARTCHAR jcircumflex
ENCODING 309
SWIDTH 282 0
DWIDTH 5 0
BBX 9 17 -3 -4
BITMAP
0000000400
000000AF40
00003CAE80
0005D608C0
0000000000
00004EC000
00000FD000
00001FA000
00004F7000
00008F2000
0000DC0000
0003F70000
000AE10000
002F800000
00AD100000
07E3000000
7C20000000
ENDCHAR
STARTCHAR Kcommaaccent
ENCODING 310
SWIDTH 616 0
DWIDTH 10 0
BBX 12 16 -1 -4
BITMAP
008EE80009D1
0043BF0008F5
0000EE000BF2
0002FB005F90
0006F704EA00
000BF35E7000
001FE9D30000
006FBEB00000
00CF26F80000
04F900CF4000
1DE1003FD200
8C200005DE60
000240000000
000BF2000000
0008D0000000
003B20000000
ENDCHAR
STARTCHAR kcommaaccent
ENCODING 311
SWIDTH 497 0
DWIDTH 8 0
BBX 8 17 0 -4
BITMAP
0003E300
0006F400
0009F100
000DC000
002F7000
006F21EC
00BC00DE
01F71BF5
06F9EA30
0CEF8000
4F7CE100
BE14FC74
C7007EC2
01400000
07F60000
04F20000
0B500000
ENDCHAR
STARTCHAR kgreenlandic
ENCODING 312
SWIDTH 497 0
DWIDTH 8 0
BBX 9 8 0 0
BITMAP
02EB00DC10
00ED00CF10
01F908F900
06F7BE7000
0CFFB10000
4FCBD00000
BF44F80100
CA007ED400
ENDCHAR
STARTCHAR Lacute
ENCODING 313
SWIDTH 517 0
DWIDTH 8 0
BBX 11 16 -1 0
BITMAP
000000000420
000000001EA0
00000000AE30
000000026100
0000019ED300
00000AE25D00
00006F607E00
0001ED02EB00
0006F73DF400
000CF27E6000
002FA0000000
008F40000000
00DC00000000
05F400000000
2EB8BDEC1000
2EDA878C5000
ENDCHAR
STARTCHAR lacute
ENCODING 314
SWIDTH 279 0
DWIDTH 4 0
BBX 8 16 0 0
BITMAP
00000140
000008F2
00004F90
00006300
0008A000
000CD000
001F9000
005F5000
00AE1000
01FA0000
06F50000
0BE10000
1FA00000
5F500000
7F310000
3DC40000
ENDCHAR
STARTCHAR Lcommaaccent
ENCODING 315
SWIDTH 517 0
DWIDTH 8 0
BBX 10 16 -1 -4
BITMAP
0000019ED3
00000AE25D
00006F607E
0001ED02EB
0006F73DF4
000CF27E60
002FA00000
008F400000
00DC000000
05F4000000
2EB8BDEC10
2EDA878C50
0023000000
00DE000000
00BA000000
05A1000000
ENDCHAR
STARTCHAR lcommaaccent
ENCODING 316
SWIDTH 279 0
DWIDTH 4 0
BBX 6 17 0 -4
BITMAP
0006D1
000AF1
000DD0
002F90
006F40
00BE00
01F900
06F400
0BE000
1FA000
5F5000
7F3300
2DD300
140000
6F6000
4F2000
B50000
ENDCHAR
STARTCHAR Lcaron
ENCODING 317
SWIDTH 517 0
DWIDTH 8 0
BBX 13 15 -1 0
BITMAP
000000000008D0
000000000009F0
00000000000B90
0000019ED35B10
00000AE25D0000
00006F607E0000
0001ED02EB0000
0006F73DF40000
000CF27E600000
002FA000000000
008F4000000000
00DC0000000000
05F40000000000
2EB8BDEC100000
2EDA878C500000
ENDCHAR
STARTCHAR lcaron
ENCODING 318
SWIDTH 467 0
DWIDTH 7 0
BBX 9 13 0 0
BITMAP
0006D10CA0
000AF10DB0
000DD01E50
002F909800
006F400000
00BE000000
01F9000000
06F4000000
0BE0000000
1FA0000000
5F50000000
7F33000000
2DD3000000
ENDCHAR
STARTCHAR Ldot
ENCODING 319
SWIDTH 668 0
DWIDTH 11 0
BBX 12 12 -1 0
BITMAP
0000019ED300
00000AE25D00
00006F607E00
0001ED02EB00
0006F73DF400
000CF27E6011
002FA00004FD
008F400004FA
00DC00000010
05F400000000
2EB8BDEC1000
2EDA878C5000
ENDCHAR
STARTCHAR ldot
ENCODING 320
SWIDTH 489 0
DWIDTH 8 0
BBX 8 13 0 0
BITMAP
0006D100
000AF100
000DD000
002F9000
006F4000
00BE0000
01F90372
06F40CF9
0BE007D3
1FA00000
5F500000
7F330000
2DD30000
ENDCHAR
STARTCHAR Lslash
ENCODING 321
SWIDTH 517 0
DWIDTH 8 0
BBX 10 12 -1 0
BITMAP
0000019ED3
00000BE35C
00006F706F
0001EF10CD
0006FA09F7
000CF48FD1
003FE03920
1AFFFD5000
04ED000000
05F5000000
2DC7ACDA10
2EDA879C50
ENDCHAR
STARTCHAR lslash
ENCODING 322
SWIDTH 279 0
DWIDTH 4 0
BBX 8 13 0 0
BITMAP
006B2000
004DFDA1
000BE000
001F9000
005F5000
00AE1000
01FA0000
05F50000
0AE10000
1FA00000
5F600000
7F310000
2ED40000
ENDCHAR
STARTCHAR Nacute
ENCODING 323
SWIDTH 708 0
DWIDTH 11 0
BBX 13 16 0 0
BITMAP
00000000002300
0000000000BE00
0000000006F600
00000000072000
00003CC001DB10
0002EFB000BF50
000AAF90009F40
004E3F9000BE10
00C91FA001E900
03F31FB005F200
09C00EE00C9000
0E800BF24E1000
4F4007F6A80000
7F0003FCE10000
AC0000BF800000
7900002D500000
ENDCHAR
STARTCHAR nacute
ENCODING 324
SWIDTH 561 0
DWIDTH 9 0
BBX 9 13 0 0
BITMAP
0000001B20
0000007F50
000002EA00
00000C7000
0000000000
02EB05DC10
00DD567F50
01FB80CF30
06FB04FC00
0CE20AF500
3F700EE000
AE100FA100
C80009EA00
ENDCHAR
STARTCHAR Ncommaaccent
ENCODING 325
SWIDTH 708 0
DWIDTH 11 0
BBX 13 16 0 -4
BITMAP
00003CC001DB10
0002EFB000BF50
000AAF90009F40
004E3F9000BE10
00C91FA001E900
03F31FB005F200
09C00EE00C9000
0E800BF24E1000
4F4007F6A80000
7F0003FCE10000
AC0000BF800000
7900002D500000
00003100000000
0001FB00000000
0000D800000000
00079000000000
ENDCHAR
STARTCHAR ncommaaccent
ENCODING 326
SWIDTH 561 0
DWIDTH 9 0
BBX 9 12 0 -4
BITMAP
02EB05DC10
00DD567F50
01FB80CF30
06FB04FC00
0CE20AF500
3F700EE000
AE100FA100
C80009EA00
0041000000
03F9000000
01F5000000
0970000000
ENDCHAR
STARTCHAR Ncaron
ENCODING 327
SWIDTH 708 0
DWIDTH 11 0
BBX 13 16 0 0
BITMAP
00000003500130
00000006F85E70
00000000CFA400
00000000110000
00003CC001DB10
0002EFB000BF50
000AAF90009F40
004E3F9000BE10
00C91FA001E900
03F31FB005F200
09C00EE00C9000
0E800BF24E1000
4F4007F6A80000
7F0003FCE10000
AC0000BF800000
7900002D500000
ENDCHAR
STARTCHAR ncaron
ENCODING 328
SWIDTH 561 0
DWIDTH 9 0
BBX 10 12 0 0
BITMAP
00008A0078
00004F5BD2
00001ED600
0000020000
02EB05DC10
00DD567F50
01FB80CF30
06FB04FC00
0CE20AF500
3F700EE000
AE100FA100
C80009EA00
ENDCHAR
STARTCHAR Eng
ENCODING 330
SWIDTH 698 0
DWIDTH 11 0
BBX 13 16 0 -4
BITMAP
00004D9003EA00
0003FF8000CF30
000CBF7000AF20
006E5F6000BF00
00D74F7000EB00
05F13F9003F600
0BB01FB007E100
1F600EE00C9000
6F100AF43F2000
9D0005FA990000
CA0000DFE10000
9700007F500000
000001EA000000
00001CB0000000
0002CB10000000
005D7000000000
ENDCHAR
STARTCHAR eng
ENCODING 331
SWIDTH 561 0
DWIDTH 9 0
BBX 9 12 0 -4
BITMAP
02EB05DC10
00DD566F50
01FB808F20
06FB00DE00
0CE203F900
3F7009F300
AE101FB000
C8008F4000
0002FB0000
000BE20000
008F400000
06D4000000
ENDCHAR
STARTCHAR Omacron
ENCODING 332
SWIDTH 655 0
DWIDTH 10 0
BBX 11 14 1 0
BITMAP
00001CEEED20
000000000000
00006CED7000
000BF604F500
00AF5000EA00
06F90000EB00
1EE10002FA00
6F800006F600
BF20000CF100
DD00005FA000
FA0001DE2000
EA0009F50000
8E119F600000
19DEA3000000
ENDCHAR
STARTCHAR omacron
ENCODING 333
SWIDTH 514 0
DWIDTH 8 0
BBX 9 10 0 0
BITMAP
0006DEEE90
0000000000
0007DEA100
00BE43F700
08F602FA00
1ED004F800
4F800AF400
6F503FC000
3F62DD2000
07DE920000
ENDCHAR
STARTCHAR Obreve
ENCODING 334
SWIDTH 655 0
DWIDTH 10 0
BBX 11 16 1 0
BITMAP
000001600130
000005F32B30
000001BEB400
000000000000
00006CED7000
000BF604F500
00AF5000EA00
06F90000EB00
1EE10002FA00
6F800006F600
BF20000CF100
DD00005FA000
FA0001DE2000
EA0009F50000
8E119F600000
19DEA3000000
ENDCHAR
STARTCHAR obreve
ENCODING 335
SWIDTH 514 0
DWIDTH 8 0
BBX 9 12 0 0
BITMAP
00009700A0
0000CC1790
00004DD700
0000000000
0007DEA100
00BE43F700
08F602FA00
1ED004F800
4F800AF400
6F503FC000
3F62DD2000
07DE920000
ENDCHAR
STARTCHAR Ohungarumlaut
ENCODING 336
SWIDTH 655 0
DWIDTH 10 0
BBX 11 16 1 0
BITMAP
000000240330
0000007D0AA0
000003E55E30
000005306200
00006CED7000
000BF604F500
00AF5000EA00
06F90000EB00
1EE10002FA00
6F800006F600
BF20000CF100
DD00005FA000
FA0001DE2000
EA0009F50000
8E119F600000
19DEA3000000
ENDCHAR
STARTCHAR ohungarumlaut
ENCODING 337
SWIDTH 514 0
DWIDTH 8 0
BBX 10 13 0 0
BITMAP
00000840A2
00002F55F2
0000BA1D80
000890B700
0000000000
0007DEA100
00BE43F700
08F602FA00
1ED004F800
4F800AF400
6F503FC000
3F62DD2000
07DE920000
ENDCHAR
STARTCHAR OE
ENCODING 338
SWIDTH 900 0
DWIDTH 14 0
BBX 16 12 1 0
BITMAP
000018DED66CED90
0002DD407FF910D5
001DE2007F9005F4
00AF5000EE107FC0
03FC0001FA00AB20
09F40000DB010000
0EE000004FFE1000
2F900003EF710000
4F70001DF4000000
3F6000AFA0019000
0CB02AFFA03CC000
02BEEA36DED81000
ENDCHAR
STARTCHAR oe
ENCODING 339
SWIDTH 777 0
DWIDTH 12 0
BBX 13 8 0 0
BITMAP
0004BEC34CEC10
006F90CDF52F60
03FC00BF904F60
0AF400EF23EE10
0ED005FEAFA200
1FA00CFB410000
0DB09FFC018700
04DED65DED9100
ENDCHAR
STARTCHAR Racute
ENCODING 340
SWIDTH 623 0
DWIDTH 10 0
BBX 11 17 -1 -1
BITMAP
000000000410
000000002F70
00000001CD20
000000035000
0004ADEEC600
002FC5102E80
00033E400AE0
0000BF200CE0
0002FB006F90
0007F618FB10
000CFBEE7000
003FAAE20000
009F32FA0000
02FA009F4000
0BE2002FD100
5D300005EE50
000000000100
ENDCHAR
STARTCHAR racute
ENCODING 341
SWIDTH 407 0
DWIDTH 7 0
BBX 8 13 0 0
BITMAP
000001B2
000006F6
00002EB0
0000B800
00000000
04E81AE1
01FAACF2
02FA8010
06FB0000
0BF30000
2FA00000
8F300000
8C000000
ENDCHAR
STARTCHAR Rcommaaccent
ENCODING 342
SWIDTH 623 0
DWIDTH 10 0
BBX 11 16 -1 -4
BITMAP
0004ADEEC600
002FC5102E80
00033E400AE0
0000BF200CE0
0002FB006F90
0007F618FB10
000CFBEE7000
003FAAE20000
009F32FA0000
02FA009F4000
0BE2002FD100
5D300005EE50
000320000100
000ED0000000
000C90000000
005A10000000
ENDCHAR
STARTCHAR rcommaaccent
ENCODING 343
SWIDTH 407 0
DWIDTH 7 0
BBX 9 12 -1 -4
BITMAP
004E81AE10
001FAACF10
002FA80100
006FB00000
00BF300000
02FA000000
08F3000000
08C0000000
0410000000
5F80000000
2F40000000
A600000000
ENDCHAR
STARTCHAR Rcaron
ENCODING 344
SWIDTH 623 0
DWIDTH 10 0
BBX 12 17 -1 -1
BITMAP
000000630040
000001CE39E1
0000003FE820
000000020000
0004ADEEC600
002FC5102E80
00033E400AE0
0000BF200CE0
0002FB006F90
0007F618FB10
000CFBEE7000
003FAAE20000
009F32FA0000
02FA009F4000
0BE2002FD100
5D300005EE50
000000000100
ENDCHAR
STARTCHAR rcaron
ENCODING 345
SWIDTH 407 0
DWIDTH 7 0
BBX 9 12 0 0
BITMAP
0007B00780
0004F5AD30
0000ED6000
0000200000
04E81AE100
01FAACF200
02FA801000
06FB000000
0BF3000000
2FA0000000
8F30000000
8C00000000
ENDCHAR
STARTCHAR Sacute
ENCODING 346
SWIDTH 474 0
DWIDTH 8 0
BBX 10 16 0 0
BITMAP
0000000041
00000003F7
0000001CD2
0000003500
0002AED800
002EA11D70
00BE100BB0
01FA003FA0
03FA02EF30
01FF119500
00AFA00000
001EF50000
0403FB0000
6E00BC0000
8F31D50000
1BEC600000
ENDCHAR
STARTCHAR sacute
ENCODING 347
SWIDTH 423 0
DWIDTH 7 0
BBX 8 13 0 0
BITMAP
000000A3
000005F7
00001DC1
0000A910
00000000
005CEC30
03F51EB0
06F60A50
02FD1000
008FA000
341DF000
BC1BD000
5DEB2000
ENDCHAR
STARTCHAR Scircumflex
ENCODING 348
SWIDTH 474 0
DWIDTH 8 0
BBX 10 16 0 0
BITMAP
0000000210
0000004EB0
000029D9F4
0000361064
0002AED800
002EA11D70
00BE100BB0
01FA003FA0
03FA02EF30
01FF119500
00AFA00000
001EF50000
0403FB0000
6E00BC0000
8F31D50000
1BEC600000
ENDCHAR
STARTCHAR scircumflex
ENCODING 349
SWIDTH 423 0
DWIDTH 7 0
BBX 8 13 0 0
BITMAP
00000040
00001AF3
0003D9F7
006D509B
00000000
005CEC30
03F51EB0
06F60A50
02FD1000
008FA000
341DF000
BC1BD000
5DEB2000
ENDCHAR
STARTCHAR Scedilla
ENCODING 350
SWIDTH 474 0
DWIDTH 8 0
BBX 9 16 0 -4
BITMAP
0002AEE900
002EA11D70
00BE100BB0
01FA004F90
03FB03EF30
00FF217300
009FB00000
000CF50000
1702EB0000
8E00BB0000
8F65E50000
1AFC500000
00B5000000
01E7000000
1EF3000000
0420000000
ENDCHAR
STARTCHAR scedilla
ENCODING 351
SWIDTH 423 0
DWIDTH 7 0
BBX 7 12 0 -4
BITMAP
005CEC30
03F51EB0
06F60A50
02FD1000
009F9000
001DF000
8A0AD000
AFEC3000
19B00000
05E00000
2CC00000
7E400000
ENDCHAR
STARTCHAR Scaron
ENCODING 352
SWIDTH 474 0
DWIDTH 8 0
BBX 11 16 0 0
BITMAP
000006300400
00001CE39E10
000003FD8200
000000300000
0002AED80000
002EA11D7000
00BE100BB000
01FA003FA000
03FA02EF3000
01FF11950000
00AFA0000000
001EF5000000
0403FB000000
6E00BC000000
8F31D5000000
1BEC60000000
ENDCHAR
STARTCHAR scaron
ENCODING 353
SWIDTH 423 0
DWIDTH 7 0
BBX 9 12 0 0
BITMAP
0004C203B0
0000E88E60
0000AE8100
0000110000
005CEC3000
03F51EB000
06F60A5000
02FD100000
008FA00000
341DF00000
BC1BD00000
5DEB200000
ENDCHAR
STARTCHAR Tcommaaccent
ENCODING 354
SWIDTH 471 0
DWIDTH 8 0
BBX 9 16 1 -4
BITMAP
3CEC951090
CD20DEDD80
C604F90000
1009F50000
000DF10000
003FB00000
007F600000
00CF100000
02FA000000
08F3000000
2E90000000
CA10000000
1400000000
7F50000000
5E20000000
B400000000
ENDCHAR
STARTCHAR tcommaaccent
ENCODING 355
SWIDTH 358 0
DWIDTH 6 0
BBX 7 14 0 -4
BITMAP
0009C000
003F9000
08FFDB20
02F90000
07F40000
0BE00000
0E900000
2F601000
2FA8B000
0AFB2000
04100000
4F900000
2F400000
A6000000
ENDCHAR
STARTCHAR Tcaron
ENCODING 356
SWIDTH 471 0
DWIDTH 8 0
BBX 10 16 1 0
BITMAP
0000350013
00006F85E7
00000CFB50
0000012000
3CEC951090
CD20DEDD80
C604F90000
1009F50000
000DF10000
003FB00000
007F600000
00CF100000
02FA000000
08F3000000
2E90000000
CA10000000
ENDCHAR
STARTCHAR tcaron
ENCODING 357
SWIDTH 497 0
DWIDTH 8 0
BBX 9 13 1 0
BITMAP
0000002E60
0000002F70
0000004E20
001D70C400
008F300000
1CFED80000
07F4000000
0CD0000000
1F80000000
5F40000000
7F10100000
7F7A700000
2DE8000000
ENDCHAR
STARTCHAR Tbar
ENCODING 358
SWIDTH 471 0
DWIDTH 8 0
BBX 9 12 1 0
BITMAP
3CEC951090
DD10DEDD80
B604F90000
0009F40000
000EE00000
AEEFEA0000
008F300000
00DD000000
03F8000000
09F2000000
3F80000000
CA00000000
ENDCHAR
STARTCHAR tbar
ENCODING 359
SWIDTH 358 0
DWIDTH 6 0
BBX 7 10 0 0
BITMAP
0009C000
003F9000
08FFDB20
01FA0000
04F60000
6EFEE900
0DB00000
1F700000
2FA7B000
0AFB2000
ENDCHAR
STARTCHAR Utilde
ENCODING 360
SWIDTH 624 0
DWIDTH 10 0
BBX 11 15 0 0
BITMAP
000005CD4290
00001908EA20
000000000000
000CE30007D0
0008F5001EC0
000CF1008F50
003FA001EE00
00AF4008F900
02FC001EF400
08F5009FE000
0EE002EFA000
4F800B9F6000
9F30688F2000
AF25909F2100
3DD6003ED500
ENDCHAR
STARTCHAR utilde
ENCODING 361
SWIDTH 553 0
DWIDTH 9 0
BBX 10 12 0 0
BITMAP
00007DD338
000471AD91
0000000000
0000000000
02DD000C90
00CF006F60
02FB01EE00
08F508F800
1EE02EF200
6F80BBC000
9F3A4DA000
4EB309E900
ENDCHAR
STARTCHAR Umacron
ENCODING 362
SWIDTH 624 0
DWIDTH 10 0
BBX 11 14 0 0
BITMAP
00000BEEED30
000000000000
000CE30007D0
0008F5001EC0
000CF1008F50
003FA001EE00
00AF4008F900
02FC001EF400
08F5009FE000
0EE002EFA000
4F800B9F6000
9F30688F2000
AF25909F2100
3DD6003ED500
ENDCHAR
STARTCHAR umacron
ENCODING 363
SWIDTH 553 0
DWIDTH 9 0
BBX 10 10 0 0
BITMAP
0002DEEEC1
0000000000
02DD000C90
00CF006F60
02FB01EE00
08F508F800
1EE02EF200
6F80BBC000
9F3A4DA000
4EB309E900
ENDCHAR
STARTCHAR Ubreve
ENCODING 364
SWIDTH 624 0
DWIDTH 10 0
BBX 11 16 0 0
BITMAP
000000600130
000004F41B50
000001AEC500
000000000000
000CE30007D0
0008F5001EC0
000CF1008F50
003FA001EE00
00AF4008F900
02FC001EF400
08F5009FE000
0EE002EFA000
4F800B9F6000
9F30688F2000
AF25909F2100
3DD6003ED500
ENDCHAR
STARTCHAR ubreve
ENCODING 365
SWIDTH 553 0
DWIDTH 9 0
BBX 10 12 0 0
BITMAP
00004C0054
00007F24C1
00001BEA20
0000000000
02DD000C90
00CF006F60
02FB01EE00
08F508F800
1EE02EF200
6F80BBC000
9F3A4DA000
4EB309E900
ENDCHAR
STARTCHAR Uring
ENCODING 366
SWIDTH 624 0
DWIDTH 10 0
BBX 11 16 0 0
BITMAP
0000002BE700
000000C85F00
000002F35F00
000002F4BA00
000CE38DA8D0
0008F5001EC0
000CF1008F50
003FA001EE00
00AF4008F900
02FC001EF400
08F5009FE000
0EE002EFA000
4F800B9F6000
9F30697F2000
AF25909F2100
3DD7003ED500
ENDCHAR
STARTCHAR uring
ENCODING 367
SWIDTH 553 0
DWIDTH 9 0
BBX 9 12 0 0
BITMAP
000008DE70
00006E1AB0
00003CEB20
0000000000
02DD000C90
00CF006F60
02FB01EE00
08F508F800
1EE02EF200
6F80BBC000
9F3A4DA000
4EB309E900
ENDCHAR
STARTCHAR Uhungarumlaut
ENCODING 368
SWIDTH 624 0
DWIDTH 10 0
BBX 11 16 0 0
BITMAP
000000150240
0000006E09B0
000002D63E40
000004305200
000CE30007D0
0008F5001EC0
000CF1008F50
003FA001EE00
00AF4008F900
02FC001EF400
08F5009FE000
0EE002EFA000
4F800B9F6000
9F30688F2000
AF25909F2100
3DD6003ED500
ENDCHAR
STARTCHAR uhungarumlaut
ENCODING 369
SWIDTH 553 0
DWIDTH 9 0
BBX 10 13 0 0
BITMAP
0000048075
00000CA1E7
00007E29C1
0004B26A10
0000000000
02DD000C90
00CF006F60
02FB01EE00
08F508F800
1EE02EF200
6F80BBC000
9F3A4DA000
4EB309E900
ENDCHAR
STARTCHAR Uogonek
ENCODING 370
SWIDTH 684 0
DWIDTH 11 0
BBX 12 16 0 -4
BITMAP
0006EA0001D6
0001FC0008F4
0004F8001ED0
000BF2008F70
002FB001EF20
009F4008FB00
01ED002FF700
07F600AEF200
0CE104CCD000
1FA01C2FA000
2F91A31F9000
0AEA200BFE10
0000000AD200
0000008E2000
000000EA1000
000000AD7000
ENDCHAR
STARTCHAR uogonek
ENCODING 371
SWIDTH 553 0
DWIDTH 9 0
BBX 9 12 0 -4
BITMAP
02DD000C90
00CF006F60
02FB01EE00
08F508F800
1EE02EF200
6F80BBC000
9F3A4DA000
4EB30AFD00
00000AD200
00007E2000
0000DB2000
0000AE7000
ENDCHAR
STARTCHAR Wcircumflex
ENCODING 372
SWIDTH 941 0
DWIDTH 15 0
BBX 15 16 1 0
BITMAP
0000000001200000
000000002CE00000
00000018E8F70000
0000001720460000
5CEC300000004E70
361DB00000005FD0
007FA001BE101FE0
01EF402DF7000FD0
06FB01DFC0002FA0
0CF40BFF50005F60
3FC08EBF1000AE10
7F53F4EC0002F800
BE1C71F9000AD000
DB7B01F8006E2000
CCD100EA07D30000
4E50005ED8100000
ENDCHAR
STARTCHAR wcircumflex
ENCODING 373
SWIDTH 750 0
DWIDTH 12 0
BBX 12 13 0 0
BITMAP
000000004000
00000009F500
000002CBE900
00004D607D00
000000000000
04EC001504E6
00DE00CE01FB
00E905F800DA
05F41DF200E6
0BD0AFB005E1
2F779E901D50
5FBB0DC4C800
4E8006ED5000
ENDCHAR
STARTCHAR Ycircumflex
ENCODING 374
SWIDTH 580 0
DWIDTH 9 0
BBX 11 20 0 -4
BITMAP
00000004A000
0000007EF600
00000CA2AD00
000000000000
001CE30008D0
0009F4001EB0
000CE1009F40
004F9002FD00
00AF3009F700
02FB002FF200
08F5009FB000
1ED003FF5000
5F700CBE1000
9F2078D90000
AF1696F20000
4DD61D900000
00009D100000
0006F3000000
007E50000000
1CB300000000
ENDCHAR
STARTCHAR ycircumflex
ENCODING 375
SWIDTH 549 0
DWIDTH 9 0
BBX 9 18 0 -5
BITMAP
0000001300
000002DE00
00006EAF30
0009B30C70
0000000000
01DD100BA0
00BF105F80
01EC00DF30
07F605FD00
0DE11DF800
5F90ABF300
8F496BC000
3EC52F6000
00008E1000
0002E60000
001CB00000
04CD100000
0881000000
ENDCHAR
STARTCHAR Ydieresis
ENCODING 376
SWIDTH 580 0
DWIDTH 9 0
BBX 11 20 0 -4
BITMAP
000005501730
00003FF19FA0
00001A804C30
000000000000
001CE30008D0
0009F4001EB0
000CE1009F40
004F9002FD00
00AF3009F700
02FB002FF200
08F5009FB000
1ED003FF5000
5F700CBE1000
9F2078D90000
AF1696F20000
4DD61D900000
00009D100000
0006F3000000
007E50000000
1CB300000000
ENDCHAR
STARTCHAR Zacute
ENCODING 377
SWIDTH 501 0
DWIDTH 8 0
BBX 11 16 -1 0
BITMAP
000000002300
00000000CD00
00000007F500
000000072000
000EDDDEED20
0008EEA5CF70
0000000AFD10
0000009FE300
000008FE4000
00006FF40000
0004FF400000
002EF5000000
00CF60000000
08F800000000
2FC59DFD2000
1EEEDDDE6000
ENDCHAR
STARTCHAR zacute
ENCODING 378
SWIDTH 430 0
DWIDTH 7 0
BBX 8 13 0 0
BITMAP
00000086
000002FA
00000BE2
00007B20
00000000
01EA89E2
00697DF3
0001BF50
002DE400
03ED2000
1EC10000
AF9AB400
AD87AB00
ENDCHAR
STARTCHAR Zdotaccent
ENCODING 379
SWIDTH 501 0
DWIDTH 8 0
BBX 11 16 -1 0
BITMAP
000000460000
000001FF4000
000000990000
000000000000
000EDDDEED20
0008EEA5CF70
0000000AFD10
0000009FE200
000008FE3000
00006FE30000
0004FE300000
002EE3000000
00CF40000000
08F600000000
2FB6ADFD2000
1DEBA99C6000
ENDCHAR
STARTCHAR zdotaccent
ENCODING 380
SWIDTH 430 0
DWIDTH 7 0
BBX 8 12 0 0
BITMAP
0000BE20
0000EF20
00002200
00000000
01EA89E2
00697DF3
0001BF50
002DE400
03ED2000
1EC10000
AF9AB400
AD87AB00
ENDCHAR
STARTCHAR Zcaron
ENCODING 381
SWIDTH 501 0
DWIDTH 8 0
BBX 11 16 -1 0
BITMAP
000004500230
000007F76E60
000000CFA400
000000110000
000EDDDEED20
0008EEA5CF70
0000000AFD10
0000009FE300
000008FE4000
00006FF40000
0004FF400000
002EF5000000
00CF60000000
08F800000000
2FC59DFD2000
1EEEDDDE6000
ENDCHAR
STARTCHAR zcaron
ENCODING 382
SWIDTH 430 0
DWIDTH 7 0
BBX 9 12 0 0
BITMAP
0009900860
0006F4CC20
0002FC5000
0000200000
01EA89E200
00697DF300
0001BF5000
002DE40000
03ED200000
1EC1000000
AF9AB40000
AD87AB0000
ENDCHAR
STARTCHAR florin
ENCODING 402
SWIDTH 466 0
DWIDTH 7 0
BBX 13 17 -3 -4
BITMAP
000000001AD900
00000001CA1C40
00000008E14F40
0000001E71EC00
0000007F102000
000000DEC70000
00004DFFFE0000
00006CF4000000
00000BE0000000
00000FA0000000
00004F70000000
00008F20000000
0000CD00000000
0002F800000000
5408F200000000
EA2E8000000000
6DE90000000000
ENDCHAR
STARTCHAR AEacute
ENCODING 508
SWIDTH 878 0
DWIDTH 14 0
BBX 18 16 -2 0
BITMAP
000000000000023000
0000000000000CD000
0000000000007F5000
000000000000720000
0000000007DEADFD80
00000001BA4FF811F3
0000000AC0BF7007F2
0000007E21FD009FA0
000003F603F800BA10
00001DC001F8000000
0004CFDCDEFFD90000
0006F50008FC200000
000CC0003FD1000000
006F40006F7004C000
03EA00003FB48F9000
1DB1000007DFC60000
ENDCHAR
STARTCHAR aeacute
ENCODING 509
SWIDTH 770 0
DWIDTH 12 0
BBX 12 13 0 0
BITMAP
00000000B300
00000005F700
0000001DC100
000000A91000
000000000000
0006DD7DCDE7
009E41EF90CF
06F501FD01EE
0EC007F63CF6
4F700DFDD930
6F507EF30010
4F64B6F704D1
0AEA108EDC40
ENDCHAR
STARTCHAR Scommaaccent
ENCODING 536
SWIDTH 474 0
DWIDTH 8 0
BBX 9 16 0 -4
BITMAP
0002AED800
002EA11D70
00BE100BB0
01FA003FA0
03FA02EF30
01FF119500
00AFA00000
001EF50000
0403FB0000
6E00BC0000
8F31D50000
1BEC600000
0141000000
06F7000000
04F3000000
0B50000000
ENDCHAR
STARTCHAR scommaaccent
ENCODING 537
SWIDTH 423 0
DWIDTH 7 0
BBX 7 12 0 -4
BITMAP
005CEC30
03F51EB0
06F60A50
02FD1000
008FA000
341DF000
BC1BD000
5DEB2000
03300000
0ED00000
0C900000
6A100000
ENDCHAR
STARTCHAR dotlessj
ENCODING 567
SWIDTH 277 0
DWIDTH 4 0
BBX 7 12 -3 -4
BITMAP
00004EB0
00001FC0
00002F90
00005F60
00009F20
0000EB00
0004F600
000BE100
003F7000
00BC0000
08D20000
8B200000
ENDCHAR
STARTCHAR circumflex
ENCODING 710
SWIDTH 354 0
DWIDTH 6 0
BBX 6 4 0 9
BITMAP
000130
002DE0
05EAF3
9C30C8
ENDCHAR
STARTCHAR caron
ENCODING 711
SWIDTH 381 0
DWIDTH 6 0
BBX 6 4 0 8
BITMAP
2C303C
0CA7E7
08E920
001000
ENDCHAR
STARTCHAR breve
ENCODING 728
SWIDTH 344 0
DWIDTH 6 0
BBX 6 3 0 9
BITMAP
2D1027
4F52C3
09EB30
ENDCHAR
STARTCHAR dotaccent
ENCODING 729
SWIDTH 217 0
DWIDTH 3 0
BBX 3 3 1 9
BITMAP
9E50
CF40
1300
ENDCHAR
STARTCHAR ring
ENCODING 730
SWIDTH 402 0
DWIDTH 6 0
BBX 5 4 2 8
BITMAP
1AEC10
AB0F60
D84F30
6DD600
ENDCHAR
STARTCHAR ogonek
ENCODING 731
SWIDTH 311 0
DWIDTH 5 0
BBX 5 5 0 -4
BITMAP
000440
01A800
0BB000
3F6100
2DC400
ENDCHAR
STARTCHAR tilde
ENCODING 732
SWIDTH 397 0
DWIDTH 6 0
BBX 6 2 1 10
BITMAP
4CE61B
A16EB3
ENDCHAR
STARTCHAR hungarumlaut
ENCODING 733
SWIDTH 392 0
DWIDTH 6 0
BBX 7 4 0 9
BITMAP
00660840
01E83F50
09D1BA00
6A189000
ENDCHAR
STARTCHAR pi
ENCODING 960
SWIDTH 640 0
DWIDTH 10 0
BBX 12 8 -1 0
BITMAP
006CEFFFFFF3
00209916F710
0001E409F100
0007D00EB000
001E803F7000
00AF206F3000
09F9007F8500
1DB1002DD200
ENDCHAR
STARTCHAR uni1E02
ENCODING 7682
SWIDTH 551 0
DWIDTH 9 0
BBX 10 16 0 0
BITMAP
0000006500
000004FF00
000001B700
0000000000
005ADEEC60
08FA3006F4
002AD101F8
004FC005F7
00CF302DE1
04FA16EE30
09FFFFD100
0DC304F800
2F6000EB00
3F3004F800
2F516EC100
08EEC60000
ENDCHAR
STARTCHAR uni1E03
ENCODING 7683
SWIDTH 525 0
DWIDTH 8 0
BBX 9 13 0 0
BITMAP
0009A00000
000DC04EA0
001F806FA0
006F400410
00AE000000
00E99DD300
05FC61FA00
0AF801FC00
0ED103FA00
3F7008F600
5F202ED000
3F43CD2000
08EE910000
ENDCHAR
STARTCHAR uni1E0A
ENCODING 7690
SWIDTH 630 0
DWIDTH 10 0
BBX 11 16 0 0
BITMAP
000000471000
000000EF5000
0000008A1000
000000000000
018CEEDB4000
03EA2005F800
0004B4008F20
000DF2006F50
006F90007F50
00DF2000AF20
04FA0001FC00
09F4000AF500
0DE0006F9000
2F9006FA0000
3F72AF800000
08EEA3000000
ENDCHAR
STARTCHAR uni1E0B
ENCODING 7691
SWIDTH 557 0
DWIDTH 9 0
BBX 11 13 0 0
BITMAP
000000003E40
000BE300BE10
000EF302F900
00023007F400
0000000CE000
0004CE9F9000
006F60CF4000
04F700DE0000
0CE102FA0000
2F9009F60000
5F703FF20000
3F72DCF01000
0AEC44EC3000
ENDCHAR
STARTCHAR uni1E1E
ENCODING 7710
SWIDTH 518 0
DWIDTH 8 0
BBX 10 16 0 0
BITMAP
0000002720
000000BF80
0000006B20
0000001110
05DFEFFFFC
1FA12F6330
0B209F1000
0000ED0000
0004F90000
0009F60000
00BFFED900
008FA00000
009F400000
02FB000000
0AE2000000
5D30000000
ENDCHAR
STARTCHAR uni1E1F
ENCODING 7711
SWIDTH 393 0
DWIDTH 6 0
BBX 10 18 -1 -2
BITMAP
0000007500
000005FF00
000001A600
0000019CB1
00000BD1E8
00004F64F8
00009F18D2
0000EC0000
0004F70000
008EFED800
016EC00000
003F700000
007F300000
00CE000000
02F9000000
07F4000000
0DD0000000
3D40000000
ENDCHAR
STARTCHAR uni1E40
ENCODING 7744
SWIDTH 931 0
DWIDTH 15 0
BBX 17 16 -2 0
BITMAP
000000000000164000
0000000000007FD000
0000000000002B5000
000000000000000000
000000005CE1004DD0
00000007CED005DEB0
0000005D4F802E7F60
000001E59F30B99F20
00000AB0DD04E1EC00
00003F32F90C65F700
0000CA06F54D09F300
0005F209F3C50DE000
001D800AF4C02FA000
009E100BEC404F7000
06F5000BFB003F8100
7E700006D2000AEB10
ENDCHAR
STARTCHAR uni1E41
ENCODING 7745
SWIDTH 814 0
DWIDTH 13 0
BBX 13 12 0 0
BITMAP
0000000CE20000
0000001EF20000
00000002200000
00000000000000
02EB05DC04CD20
00DD584E596F60
01FA909DB0BF20
06FB01EE23FA00
0CE207F609F300
3F700DD00DC000
AE104F600ED800
C8005D1008E800
ENDCHAR
STARTCHAR uni1E56
ENCODING 7766
SWIDTH 553 0
DWIDTH 9 0
BBX 11 16 -1 0
BITMAP
000000016400
00000007FC00
00000003B500
000000000000
0005ADEDC700
003FC5103E80
00034E300CD0
0000CE101FB0
0003F901CF40
0008F46EE500
000EFEC71000
005F60000000
00BE10000000
03F700000000
0CC000000000
6D2000000000
ENDCHAR
STARTCHAR uni1E57
ENCODING 7767
SWIDTH 550 0
DWIDTH 9 0
BBX 11 16 -2 -4
BITMAP
0000003EB000
0000005FB000
000000041000
000000000000
0007E65CE700
0003FCC19F10
0005FE108F30
0009F500BF10
000DD002FB00
002F900AF300
007FB19F6000
00BDAEB40000
01F900000000
06F400000000
0CD000000000
1E6000000000
ENDCHAR
STARTCHAR uni1E60
ENCODING 7776
SWIDTH 474 0
DWIDTH 8 0
BBX 9 16 0 0
BITMAP
0000016400
000006FD00
000002B500
0000000000
0002AED800
002EA11D70
00BE100BB0
01FA003FA0
03FA02EF30
01FF119500
00AFA00000
001EF50000
0403FB0000
6E00BC0000
8F31D50000
1BEC600000
ENDCHAR
STARTCHAR uni1E61
ENCODING 7777
SWIDTH 423 0
DWIDTH 7 0
BBX 7 12 0 0
BITMAP
00006E80
00008F80
00000400
00000000
005CEC30
03F51EB0
06F60A50
02FD1000
008FA000
341DF000
BC1BD000
5DEB2000
ENDCHAR
STARTCHAR uni1E6A
ENCODING 7786
SWIDTH 430 0
DWIDTH 7 0
BBX 10 16 0 0
BITMAP
0000006400
000006FE00
000002B600
0000000000
07EEB84028
3F904FDDD3
3F109F4000
0100EE0000
0004FA0000
0008F50000
000DF10000
002FA00000
007F400000
00DC000000
07F4000000
3E60000000
ENDCHAR
STARTCHAR uni1E6B
ENCODING 7787
SWIDTH 358 0
DWIDTH 6 0
BBX 6 12 1 0
BITMAP
0009E5
000BF5
003E60
00CE10
4EFEC6
0BE100
1FA000
5F5000
8F1000
BD0010
BE6C30
4ED600
ENDCHAR
STARTCHAR Wgrave
ENCODING 7808
SWIDTH 941 0
DWIDTH 15 0
BBX 15 16 1 0
BITMAP
0000000160000000
00000006F4000000
00000002EC100000
0000000016200000
5CEC300000004E70
361DB00000005FD0
007FA002BE101FE0
01EF302DF6000FD0
06FA02DFC0002FA0
0CF31CFF50006F60
3FB09DBE0000BE10
7F45F3EB0003F800
BE1D61F9000CD000
DB9A01F8009E2000
CDD100EB3AD30000
4E50005ED8100000
ENDCHAR
STARTCHAR wgrave
ENCODING 7809
SWIDTH 750 0
DWIDTH 12 0
BBX 12 12 0 0
BITMAP
000000BB0000
000000EB0000
0000006E0000
000000041000
04EC001504E6
00DE00CE01FB
00E905F800DA
05F41DF200E6
0BD0AFB005E1
2F779E901D50
5FBB0DC4C800
4E8006ED5000
ENDCHAR
STARTCHAR Wacute
ENCODING 7810
SWIDTH 941 0
DWIDTH 15 0
BBX 15 16 1 0
BITMAP
0000000000320000
0000000001EB0000
000000000AE40000
0000000016100000
5CEC300000004E70
361DB00000005FD0
007FA001BE101FE0
01EF402DF7000FD0
06FB01DFC0002FA0
0CF40BFF50005F60
3FC08EBF1000AE10
7F53F4EC0002F800
BE1C71F9000AD000
DB7B01F8006E2000
CCD100EA07D30000
4E50005ED8100000
ENDCHAR
STARTCHAR wacute
ENCODING 7811
SWIDTH 750 0
DWIDTH 12 0
BBX 12 13 0 0
BITMAP
000000003000
00000005F300
0000000CE100
0000009D3000
000001610000
04EC001504E6
00DE00CE01FB
00E905F800DA
05F41DF200E6
0BD0AFB005E1
2F779E901D50
5FBB0DC4C800
4E8006ED5000
ENDCHAR
STARTCHAR Wdieresis
ENCODING 7812
SWIDTH 941 0
DWIDTH 15 0
BBX 15 15 1 0
BITMAP
0000003EB08E5000
0000005FB0BF5000
0000000410130000
5CEC300000004E70
361DB00000005FD0
007FA002BE101FE0
01EF302DF6000FD0
06FA02DFC0002FA0
0CF31CFF50006F60
3FB09DBE0000BE10
7F45F3EB0003F800
BE1D61F9000CD000
DB9A01F8009E2000
CDD100EB3AD30000
4E50005ED8100000
ENDCHAR
STARTCHAR wdieresis
ENCODING 7813
SWIDTH 750 0
DWIDTH 12 0
BBX 12 12 0 0
BITMAP
00002DC07E70
00004FD0AF70
000003101400
000000000000
04EC001504E6
00DE00CE01FB
00E905F800DA
05F41DF200E6
0BD0AFB005E1
2F779E901D50
5FBB0DC4C800
4E8006ED5000
ENDCHAR
STARTCHAR Ygrave
ENCODING 7922
SWIDTH 580 0
DWIDTH 9 0
BBX 11 20 0 -4
BITMAP
000001D40000
000003FA0000
0000005D6000
000000000000
001CE30008D0
0009F4001EB0
000CE1009F40
004F9002FD00
00AF3009F700
02FB002FF200
08F5009FB000
1ED003FF5000
5F700CBE1000
9F2078D90000
AF1696F20000
4DD61D900000
00009D100000
0006F3000000
007E50000000
1CB300000000
ENDCHAR
STARTCHAR ygrave
ENCODING 7923
SWIDTH 549 0
DWIDTH 9 0
BBX 9 17 0 -5
BITMAP
00003E5000
00005F5000
00000B8000
0000014000
01DD100BA0
00BF105F80
01EC00DF30
07F605FD00
0DE11DF800
5F90ABF300
8F496BC000
3EC52F6000
00008E1000
0002E60000
001CB00000
04CD100000
0881000000
ENDCHAR
STARTCHAR endash
ENCODING 8211
SWIDTH 751 0
DWIDTH 12 0
BBX 10 1 1 4
BITMAP
5DEEEEEEE9
ENDCHAR
STARTCHAR emdash
ENCODING 8212
SWIDTH 1066 0
DWIDTH 17 0
BBX 15 1 1 4
BITMAP
4DEEEEEEEEEEEEB0
ENDCHAR
STARTCHAR quoteleft
ENCODING 8216
SWIDTH 268 0
DWIDTH 4 0
BBX 3 4 2 9
BITMAP
08A0
6E10
BE00
8E20
ENDCHAR
STARTCHAR quoteright
ENCODING 8217
SWIDTH 268 0
DWIDTH 4 0
BBX 3 4 2 9
BITMAP
0CC0
0BF0
0AA0
6B10
ENDCHAR
STARTCHAR quotesinglbase
ENCODING 8218
SWIDTH 268 0
DWIDTH 4 0
BBX 3 4 0 -2
BITMAP
2E80
0EC0
1E60
9800
ENDCHAR
STARTCHAR quotedblleft
ENCODING 8220
SWIDTH 485 0
DWIDTH 8 0
BBX 7 4 2 9
BITMAP
04B23B30
3F32E500
AF18F300
8E26E400
ENDCHAR
STARTCHAR quotedblright
ENCODING 8221
SWIDTH 480 0
DWIDTH 8 0
BBX 7 4 2 9
BITMAP
07E35E40
07F45F60
09C07D10
5A14B200
ENDCHAR
STARTCHAR quotedblbase
ENCODING 8222
SWIDTH 463 0
DWIDTH 7 0
BBX 6 4 0 -2
BITMAP
2E81DA
0EC0CD
1E60C8
980890
ENDCHAR
STARTCHAR dagger
ENCODING 8224
SWIDTH 488 0
DWIDTH 8 0
BBX 7 12 1 0
BITMAP
0005E500
0009F700
132CF650
2DFFFE90
005F9000
008F4000
00DD0000
02F70000
07F10000
0C900000
3E200000
75000000
ENDCHAR
STARTCHAR daggerdbl
ENCODING 8225
SWIDTH 488 0
DWIDTH 8 0
BBX 7 12 1 0
BITMAP
0005E500
0009F700
021CF640
2CFFFEA0
005F9000
008F4000
10DE4300
9EFFD500
07F20000
0C900000
2E200000
76000000
ENDCHAR
STARTCHAR bullet
ENCODING 8226
SWIDTH 437 0
DWIDTH 7 0
BBX 5 4 1 3
BITMAP
07ED30
2FFF90
2FFF60
05B700
ENDCHAR
STARTCHAR ellipsis
ENCODING 8230
SWIDTH 810 0
DWIDTH 13 0
BBX 12 3 0 -1
BITMAP
5EA02DD20AE5
8FC03FF20DF6
151004300250
ENDCHAR
STARTCHAR perthousand
ENCODING 8240
SWIDTH 1184 0
DWIDTH 19 0
BBX 17 12 1 0
BITMAP
03CE80006C00000000
1E94F303F500000000
8F14F41DA000000000
BC09F18E1000000000
AC2E84F40000000000
2CE81D900000000000
00009D16CC4007DC20
0004F46F4AC08E2CA0
001D90DB0AE1F80CC0
009D12F60EB4F41F90
04F401F66F43F49E20
0C60007ED5009EC400
ENDCHAR
STARTCHAR guilsinglleft
ENCODING 8249
SWIDTH 413 0
DWIDTH 7 0
BBX 5 7 1 1
BITMAP
0005A0
02BD20
5EB100
BE2000
2DC100
02EB00
002600
ENDCHAR
STARTCHAR guilsinglright
ENCODING 8250
SWIDTH 416 0
DWIDTH 7 0
BBX 5 7 1 1
BITMAP
2E6000
08F500
00AF40
006F80
09E700
BA2000
400000
ENDCHAR
STARTCHAR fraction
ENCODING 8260
SWIDTH 580 0
DWIDTH 9 0
BBX 9 13 0 0
BITMAP
00000006C0
0000002F60
000000AC00
000004F300
00000DA000
00007E1000
0001E70000
0009D00000
003F400000
00CA000000
06F2000000
1E80000000
6B10000000
ENDCHAR
STARTCHAR Euro
ENCODING 8364
SWIDTH 622 0
DWIDTH 10 0
BBX 10 12 1 0
BITMAP
000006CEB1
0000AF60B8
000AF402E9
006F801DF3
00DE100850
3DFEDB2000
0AF3000000
BFFDC50000
0DE0000000
0BF1001000
05F703D400
007EED8000
ENDCHAR
STARTCHAR trademark
ENCODING 8482
SWIDTH 1084 0
DWIDTH 17 0
BBX 14 8 2 5
BITMAP
00210000010011
3EFFFEA3DC05E9
125F320CDA2DE7
00AA005BC897F4
01F500C4D8C5F2
04F205C0EE56F1
02F62D30CB05F3
00211200110031
ENDCHAR
STARTCHAR Omega
ENCODING 8486
SWIDTH 839 0
DWIDTH 13 0
BBX 13 13 0 0
BITMAP
00000021000000
0003AECDD60000
004FA1005EB000
01EC000006F800
07F6000000DE10
0BF2000000AF30
0CF20000009F50
0AF3000000BF30
06F7000001ED00
01DD000006F600
003E70001EA000
2B55E300AA3880
1DFFFD05FFFF70
ENDCHAR
STARTCHAR partialdiff
ENCODING 8706
SWIDTH 580 0
DWIDTH 9 0
BBX 10 13 0 0
BITMAP
00003BEB20
0001EB19B0
0002F504F1
00001004F2
0007DFC8F1
00BF816FF0
07FA002FB0
1EE1007F70
5F9000DF10
8F5006F900
8F302EE100
4F42CE3000
09FFA20000
ENDCHAR
STARTCHAR Delta
ENCODING 8710
SWIDTH 663 0
DWIDTH 11 0
BBX 11 10 0 0
BITMAP
000007200000
00007FA00000
0001EAF20000
000991F90000
002E109F1000
00A7002F8000
03E1000BE100
0B600004F700
5D000000CD00
AEDDDDDDED10
ENDCHAR
STARTCHAR product
ENCODING 8719
SWIDTH 667 0
DWIDTH 11 0
BBX 9 15 1 -2
BITMAP
0122222210
6EAAAABF70
BF00003F80
CF00003F80
CF00003F80
CF00003F80
CF00003F80
CF00003F80
CF00003F80
CF00003F80
CF00003F80
CF00003F80
CF00003F80
CD00003F70
3200001400
ENDCHAR
STARTCHAR summation
ENCODING 8721
SWIDTH 677 0
DWIDTH 11 0
BBX 10 15 0 -2
BITMAP
0012222221
04FEDDDDD9
06FC000000
00CF800000
003FF40000
0007FD1000
0000BF9000
00002FC000
00007F4000
0005F60000
003E900000
01DB000000
0CD1000000
5FFFFFFFF5
1777777760
ENDCHAR
STARTCHAR minus
ENCODING 8722
SWIDTH 617 0
DWIDTH 10 0
BBX 8 2 1 5
BITMAP
57777776
9AAAAAA7
ENDCHAR
STARTCHAR radical
ENCODING 8730
SWIDTH 709 0
DWIDTH 11 0
BBX 13 16 0 0
BITMAP
00000000000010
00000000000990
00000000002F80
00000000009F20
0000000002FA00
000000000AE200
000000002F8000
00000000AD1000
02CA0003F50000
1CEF200AC00000
366F503F300000
002F80AA000000
000EB3E2000000
000ADB70000000
0007FD10000000
0003F500000000
ENDCHAR
STARTCHAR infinity
ENCODING 8734
SWIDTH 681 0
DWIDTH 11 0
BBX 11 6 0 3
BITMAP
002300033000
06FFD3BFFB00
0E818FF51D40
1F11BF902E40
0CCDF8ECEC00
016830277100
ENDCHAR
STARTCHAR integral
ENCODING 8747
SWIDTH 583 0
DWIDTH 9 0
BBX 14 19 -2 -4
BITMAP
0000000003CF80
000000002EB2E2
00000000AE24F2
00000002F90EC0
00000008F30310
0000000EC00000
0000004F800000
0000008F300000
000000DE000000
000002FA000000
000007F5000000
00000BF1000000
00001FB0000000
01105F60000000
0CE0BE10000000
4F53F700000000
4C1DD100000000
0BFC2000000000
00100000000000
ENDCHAR
STARTCHAR approxequal
ENCODING 8776
SWIDTH 671 0
DWIDTH 11 0
BBX 10 7 0 2
BITMAP
003CFB100B
02E8BFC49B
08600AFFC1
0104303301
02CFFA0077
0B84DFB8E2
1A001BFC30
ENDCHAR
STARTCHAR notequal
ENCODING 8800
SWIDTH 617 0
DWIDTH 10 0
BBX 9 11 1 0
BITMAP
000000A800
000007D100
01113F5100
8FFFFFFF20
0116E21000
001E700000
9EEFEEED00
26F5333200
0C90000000
6C10000000
1000000000
ENDCHAR
STARTCHAR lessequal
ENCODING 8804
SWIDTH 704 0
DWIDTH 11 0
BBX 8 11 1 0
BITMAP
00000038
00002AE6
0018EA20
06EC4000
DF700000
4CE70000
006DD400
00007EB2
00000189
12222222
CFFFFFFC
ENDCHAR
STARTCHAR greaterequal
ENCODING 8805
SWIDTH 617 0
DWIDTH 10 0
BBX 8 11 1 0
BITMAP
96000000
5DC40000
018EB300
0002AF92
000008FC
0003BE81
019F9200
6EB30000
A4000000
12222221
EFFFFFFA
ENDCHAR
STARTCHAR lozenge
ENCODING 9674
SWIDTH 580 0
DWIDTH 9 0
BBX 9 13 0 0
BITMAP
0000100000
0003F50000
000CEE1000
006E2E8000
01E606F200
09B000CB00
2F30003F40
2F60001E40
08E100AA00
01D804E200
005F3D8000
000BED0000
0002F50000
ENDCHAR
STARTCHAR commaaccent
ENCODING 63171
SWIDTH 250 0
DWIDTH 4 0
BBX 4 4 0 -4
BITMAP
0130
0BF2
08E1
2D30
ENDCHAR
STARTCHAR ff
ENCODING 64256
SWIDTH 773 0
DWIDTH 12 0
BBX 16 15 -1 -2
BITMAP
000001ADB2008DC2
00000BD1E808E2C9
00004F63F81F82F9
00009F18D26F37E2
0000EC0000BD0000
0003F70001F90000
018DFDDEEEFED700
038EC2100BD00000
003F80001F900000
007F30006F500000
00CE0000AF100000
02F90001FB000000
07F40006F5000000
0DD0000CE0000000
3D40002D50000000
ENDCHAR
STARTCHAR fi
ENCODING 64257
SWIDTH 623 0
DWIDTH 10 0
BBX 12 15 -1 -2
BITMAP
0000002ADD60
000003E915F3
00001DB004F6
00007F300CF2
0000DC000440
0017FDDDEF50
03EFF4106F50
013EB000AF10
003F7001FA00
008F2007F400
00CD000CE000
02F8000FA000
07F30009E800
0DC000000000
4E4000000000
ENDCHAR
STARTCHAR fl
ENCODING 64258
SWIDTH 637 0
DWIDTH 10 0
BBX 12 15 -1 -2
BITMAP
0000003BED91
000004FA13F7
00001ED001F8
00007F5004F5
0000DD0009F2
0004F8000DC0
007DFED64F70
017EC0009F20
003F8001EC00
007F3005F700
00CD0009F200
02F9000BE010
08F30005EB10
1EC000000000
4E4000000000
ENDCHAR
STARTCHAR .notdef
ENCODING -1
SWIDTH 896 0
DWIDTH 14 0
BBX 16 16 0 -1
BITMAP
0000011111111110
00004FFFFFFFFFF9
0000BFFFFFFFFFF8
0001FFFFFFFFFFF4
0005FFB4FF82AFE0
000AFF31F61AFFA0
000EFF4081CFFF60
004FFF601CFFFF10
008FFFA07FFFFC00
00CFFF303FFFF800
02FFE44709BFF300
06FF43EE204FE000
0AFFDFFFECFF9000
0EFFFFFFFFFF4000
1EFFFFFFFFFC0000
0122222222200000
ENDCHAR
ENDFONT
